<?xml version="1.0" encoding="utf-8"?>
<!-- Generator: Adobe Illustrator 25.4.1, SVG Export Plug-In . SVG Version: 6.00 Build 0)  -->
<svg version="1.1" xmlns="http://www.w3.org/2000/svg" xmlns:xlink="http://www.w3.org/1999/xlink" x="0px" y="0px"
	 viewBox="0 0 940 410" style="enable-background:new 0 0 940 410;" xml:space="preserve">
<style type="text/css">
	.st0{fill:#7D7AB8;}
	.st1{fill:#E6E6E6;}
	.st2{fill:#0071BC;}
	.st3{opacity:0.5;fill:none;stroke:#FFFFFF;stroke-width:2;stroke-miterlimit:10;}
	.st4{opacity:0.5;fill:none;stroke:#FFFFFF;stroke-width:0.25;stroke-miterlimit:10;}
	.st5{fill:none;stroke:#1B1464;stroke-width:3;stroke-miterlimit:10;}
	.st6{opacity:0.2;fill:#009EFF;}
	.st7{fill:none;stroke:#4D4D4D;stroke-miterlimit:10;}
</style>
<g id="bar">
	<path class="st0" d="M804,309.42H671.58h-60.9H20c-4.4,0-8,3.6-8,8v40.07c0,4.4,3.6,8,8,8h590.68h60.9H804c4.4,0,8-3.6,8-8v-40.07
		C812,313.02,808.4,309.42,804,309.42z"/>
</g>
<g id="overlay">
	<path class="st1" d="M49.92,309.42H20c-4.4,0-8,3.6-8,8v40.07c0,4.4,3.6,8,8,8h29.92V309.42z"/>
	<rect x="49.92" y="309.42" class="st2" width="51.83" height="56.07"/>
</g>
<g id="ticks">
	<line class="st3" x1="24" y1="365.49" x2="24" y2="309.42"/>
	<line class="st3" x1="801.46" y1="365.49" x2="801.46" y2="309.42"/>
	<line class="st4" x1="75.83" y1="365.49" x2="75.83" y2="309.42"/>
	<line class="st4" x1="127.66" y1="365.49" x2="127.66" y2="309.42"/>
	<line class="st4" x1="179.49" y1="365.49" x2="179.49" y2="309.42"/>
	<line class="st4" x1="231.32" y1="365.49" x2="231.32" y2="309.42"/>
	<line class="st4" x1="257.24" y1="365.49" x2="257.24" y2="309.42"/>
	<line class="st5" x1="49.92" y1="365.49" x2="49.92" y2="309.42"/>
	<line class="st4" x1="101.75" y1="365.49" x2="101.75" y2="309.42"/>
	<line class="st4" x1="153.58" y1="365.49" x2="153.58" y2="309.42"/>
	<line class="st4" x1="205.41" y1="365.49" x2="205.41" y2="309.42"/>
	<line class="st3" x1="283.15" y1="365.49" x2="283.15" y2="309.42"/>
	<line class="st4" x1="334.99" y1="365.49" x2="334.99" y2="309.42"/>
	<line class="st4" x1="386.82" y1="365.49" x2="386.82" y2="309.42"/>
	<line class="st4" x1="438.65" y1="365.49" x2="438.65" y2="309.42"/>
	<line class="st4" x1="490.48" y1="365.49" x2="490.48" y2="309.42"/>
	<line class="st4" x1="516.39" y1="365.49" x2="516.39" y2="309.42"/>
	<line class="st4" x1="309.07" y1="365.49" x2="309.07" y2="309.42"/>
	<line class="st4" x1="360.9" y1="365.49" x2="360.9" y2="309.42"/>
	<line class="st4" x1="412.73" y1="365.49" x2="412.73" y2="309.42"/>
	<line class="st4" x1="464.56" y1="365.49" x2="464.56" y2="309.42"/>
	<line class="st3" x1="542.31" y1="365.49" x2="542.31" y2="309.42"/>
	<line class="st4" x1="594.14" y1="365.49" x2="594.14" y2="309.42"/>
	<line class="st4" x1="645.97" y1="365.49" x2="645.97" y2="309.42"/>
	<line class="st4" x1="697.8" y1="365.49" x2="697.8" y2="309.42"/>
	<line class="st4" x1="749.63" y1="365.49" x2="749.63" y2="309.42"/>
	<line class="st4" x1="775.55" y1="365.49" x2="775.55" y2="309.42"/>
	<line class="st4" x1="568.22" y1="365.49" x2="568.22" y2="309.42"/>
	<line class="st4" x1="620.06" y1="365.49" x2="620.06" y2="309.42"/>
	<line class="st4" x1="671.89" y1="365.49" x2="671.89" y2="309.42"/>
	<line class="st4" x1="723.72" y1="365.49" x2="723.72" y2="309.42"/>
</g>
<g id="text">
	<polygon class="st6" points="24,295.5 801.46,295.5 801.46,23.57 101.75,287.72 	"/>
	<g>
		<g>
			<g>
				<path d="M781.22,397.98l4.46-4.66c0.57-0.6,1.01-1.09,1.31-1.48s0.51-0.74,0.62-1.05c0.11-0.31,0.17-0.64,0.17-0.99v-0.02
					c0-0.43-0.1-0.82-0.3-1.15c-0.2-0.33-0.48-0.6-0.83-0.79c-0.36-0.19-0.76-0.29-1.23-0.29c-0.53,0-1,0.11-1.42,0.33
					c-0.42,0.22-0.74,0.51-0.98,0.88s-0.36,0.78-0.36,1.24v0.04h-1.53V390c0-0.73,0.19-1.39,0.57-1.96
					c0.38-0.58,0.89-1.03,1.54-1.36s1.36-0.5,2.15-0.5c0.77,0,1.45,0.16,2.05,0.47s1.07,0.73,1.41,1.27
					c0.34,0.53,0.51,1.13,0.51,1.79v0.02c0,0.46-0.09,0.91-0.26,1.34c-0.17,0.43-0.47,0.92-0.9,1.46s-1.03,1.21-1.81,2.01
					l-3.48,3.57l0.47-0.98v0.98l-0.47-0.44h6.66v1.41h-8.37V397.98z"/>
				<path d="M793.33,398.48c-0.7-0.53-1.23-1.29-1.6-2.27s-0.55-2.14-0.55-3.48v-0.02c0-1.34,0.18-2.5,0.55-3.48s0.9-1.73,1.6-2.26
					c0.69-0.53,1.53-0.8,2.5-0.8s1.81,0.27,2.5,0.8s1.23,1.28,1.6,2.26c0.37,0.98,0.56,2.14,0.56,3.48v0.02
					c0,1.34-0.19,2.5-0.56,3.48c-0.37,0.98-0.91,1.73-1.6,2.27s-1.53,0.8-2.5,0.8S794.02,399.01,793.33,398.48z M797.48,397.27
					c0.46-0.42,0.81-1.02,1.05-1.79s0.37-1.69,0.37-2.75v-0.02c0-1.06-0.12-1.98-0.37-2.75c-0.24-0.77-0.59-1.36-1.05-1.78
					s-1.01-0.62-1.66-0.62s-1.2,0.21-1.65,0.62s-0.81,1.01-1.05,1.78c-0.24,0.77-0.36,1.69-0.36,2.75v0.02
					c0,1.06,0.12,1.98,0.36,2.75s0.59,1.37,1.05,1.79s1.01,0.63,1.65,0.63S797.02,397.69,797.48,397.27z"/>
				<path d="M804.52,398.81c-0.63-0.31-1.14-0.74-1.52-1.27s-0.6-1.15-0.67-1.84l-0.01-0.1h1.56l0.01,0.07
					c0.05,0.42,0.21,0.79,0.46,1.13c0.25,0.34,0.58,0.6,0.98,0.8s0.86,0.29,1.36,0.29c0.57,0,1.08-0.12,1.52-0.37
					s0.78-0.59,1.03-1.02s0.37-0.94,0.37-1.51v-0.02c0-0.56-0.12-1.05-0.37-1.48c-0.25-0.43-0.59-0.77-1.02-1.02
					s-0.93-0.37-1.49-0.37c-0.43,0-0.83,0.06-1.19,0.19s-0.69,0.32-0.97,0.58c-0.11,0.11-0.22,0.22-0.32,0.34
					c-0.1,0.12-0.2,0.26-0.28,0.4h-1.4l0.65-7.23h7.26v1.41h-5.96l-0.43,4.26h0.04c0.3-0.43,0.7-0.75,1.2-0.98s1.06-0.33,1.68-0.33
					c0.81,0,1.54,0.18,2.17,0.54s1.12,0.86,1.49,1.49c0.36,0.63,0.54,1.35,0.54,2.17v0.02c0,0.84-0.19,1.59-0.58,2.24
					s-0.92,1.16-1.6,1.53c-0.68,0.37-1.46,0.55-2.34,0.55C805.87,399.28,805.15,399.12,804.52,398.81z"/>
				<path d="M814.77,398.48c-0.7-0.53-1.23-1.29-1.6-2.27s-0.55-2.14-0.55-3.48v-0.02c0-1.34,0.18-2.5,0.55-3.48s0.9-1.73,1.6-2.26
					c0.69-0.53,1.53-0.8,2.5-0.8s1.81,0.27,2.5,0.8s1.23,1.28,1.6,2.26c0.37,0.98,0.56,2.14,0.56,3.48v0.02
					c0,1.34-0.19,2.5-0.56,3.48c-0.37,0.98-0.91,1.73-1.6,2.27s-1.53,0.8-2.5,0.8S815.46,399.01,814.77,398.48z M818.93,397.27
					c0.46-0.42,0.81-1.02,1.05-1.79s0.37-1.69,0.37-2.75v-0.02c0-1.06-0.12-1.98-0.37-2.75c-0.24-0.77-0.59-1.36-1.05-1.78
					s-1.01-0.62-1.66-0.62s-1.2,0.21-1.65,0.62s-0.81,1.01-1.05,1.78c-0.24,0.77-0.36,1.69-0.36,2.75v0.02
					c0,1.06,0.12,1.98,0.36,2.75s0.59,1.37,1.05,1.79s1.01,0.63,1.65,0.63S818.47,397.69,818.93,397.27z"/>
			</g>
		</g>
	</g>
	<g>
		<g>
			<g>
				<path d="M262.85,397.98l4.46-4.66c0.57-0.6,1.01-1.09,1.31-1.48s0.51-0.74,0.62-1.05c0.11-0.31,0.17-0.64,0.17-0.99v-0.02
					c0-0.43-0.1-0.82-0.3-1.15c-0.2-0.33-0.48-0.6-0.83-0.79c-0.36-0.19-0.76-0.29-1.23-0.29c-0.53,0-1,0.11-1.42,0.33
					c-0.42,0.22-0.74,0.51-0.98,0.88s-0.36,0.78-0.36,1.24v0.04h-1.53V390c0-0.73,0.19-1.39,0.57-1.96
					c0.38-0.58,0.89-1.03,1.54-1.36s1.36-0.5,2.15-0.5c0.77,0,1.45,0.16,2.05,0.47s1.07,0.73,1.41,1.27
					c0.34,0.53,0.51,1.13,0.51,1.79v0.02c0,0.46-0.09,0.91-0.26,1.34c-0.17,0.43-0.47,0.92-0.9,1.46s-1.03,1.21-1.81,2.01
					l-3.48,3.57l0.47-0.98v0.98l-0.47-0.44h6.66v1.41h-8.37V397.98z"/>
				<path d="M274.95,398.48c-0.7-0.53-1.23-1.29-1.6-2.27s-0.55-2.14-0.55-3.48v-0.02c0-1.34,0.18-2.5,0.55-3.48s0.9-1.73,1.6-2.26
					c0.69-0.53,1.53-0.8,2.5-0.8s1.81,0.27,2.5,0.8s1.23,1.28,1.6,2.26c0.37,0.98,0.56,2.14,0.56,3.48v0.02
					c0,1.34-0.19,2.5-0.56,3.48c-0.37,0.98-0.91,1.73-1.6,2.27s-1.53,0.8-2.5,0.8S275.65,399.01,274.95,398.48z M279.11,397.27
					c0.46-0.42,0.81-1.02,1.05-1.79s0.37-1.69,0.37-2.75v-0.02c0-1.06-0.12-1.98-0.37-2.75c-0.24-0.77-0.59-1.36-1.05-1.78
					s-1.01-0.62-1.66-0.62s-1.2,0.21-1.65,0.62s-0.81,1.01-1.05,1.78c-0.24,0.77-0.36,1.69-0.36,2.75v0.02
					c0,1.06,0.12,1.98,0.36,2.75s0.59,1.37,1.05,1.79s1.01,0.63,1.65,0.63S278.65,397.69,279.11,397.27z"/>
				<path d="M285.94,398.83c-0.65-0.3-1.17-0.71-1.54-1.23c-0.38-0.52-0.6-1.12-0.66-1.78l-0.01-0.11h1.52l0.01,0.09
					c0.06,0.62,0.36,1.13,0.9,1.52s1.22,0.59,2.07,0.59c0.56,0,1.04-0.1,1.46-0.29c0.42-0.19,0.75-0.46,0.98-0.8
					c0.23-0.34,0.35-0.74,0.35-1.18v-0.02c0-0.78-0.26-1.38-0.78-1.8c-0.52-0.42-1.22-0.63-2.11-0.63h-1.59v-1.34h1.52
					c0.5,0,0.95-0.09,1.34-0.29c0.39-0.19,0.69-0.45,0.91-0.78s0.33-0.71,0.33-1.13v-0.02c0-0.45-0.09-0.82-0.28-1.13
					s-0.46-0.55-0.82-0.71c-0.36-0.16-0.8-0.25-1.31-0.25c-0.5,0-0.94,0.08-1.33,0.25c-0.39,0.17-0.7,0.41-0.94,0.72
					s-0.38,0.68-0.42,1.11l-0.01,0.09h-1.52l0.01-0.09c0.07-0.69,0.29-1.29,0.65-1.81s0.85-0.92,1.46-1.2
					c0.61-0.29,1.31-0.43,2.1-0.43c0.81,0,1.51,0.14,2.11,0.42c0.6,0.28,1.07,0.66,1.4,1.15s0.5,1.06,0.5,1.7v0.02
					c0,0.52-0.11,0.98-0.34,1.39s-0.54,0.74-0.95,1.01s-0.87,0.46-1.4,0.57v0.04c0.93,0.08,1.67,0.39,2.25,0.94
					c0.57,0.55,0.86,1.27,0.86,2.17v0.02c0,0.7-0.19,1.33-0.57,1.89s-0.9,1-1.56,1.31c-0.66,0.32-1.42,0.48-2.27,0.48
					C287.35,399.28,286.59,399.13,285.94,398.83z"/>
				<path d="M296.52,398.48c-0.7-0.53-1.23-1.29-1.6-2.27s-0.55-2.14-0.55-3.48v-0.02c0-1.34,0.18-2.5,0.55-3.48s0.9-1.73,1.6-2.26
					c0.69-0.53,1.53-0.8,2.5-0.8s1.81,0.27,2.5,0.8s1.23,1.28,1.6,2.26c0.37,0.98,0.56,2.14,0.56,3.48v0.02
					c0,1.34-0.19,2.5-0.56,3.48c-0.37,0.98-0.91,1.73-1.6,2.27s-1.53,0.8-2.5,0.8S297.22,399.01,296.52,398.48z M300.68,397.27
					c0.46-0.42,0.81-1.02,1.05-1.79s0.37-1.69,0.37-2.75v-0.02c0-1.06-0.12-1.98-0.37-2.75c-0.24-0.77-0.59-1.36-1.05-1.78
					s-1.01-0.62-1.66-0.62s-1.2,0.21-1.65,0.62s-0.81,1.01-1.05,1.78c-0.24,0.77-0.36,1.69-0.36,2.75v0.02
					c0,1.06,0.12,1.98,0.36,2.75s0.59,1.37,1.05,1.79s1.01,0.63,1.65,0.63S300.22,397.69,300.68,397.27z"/>
			</g>
		</g>
	</g>
	<g>
		<g>
			<g>
				<path d="M521.89,397.98l4.46-4.66c0.57-0.6,1.01-1.09,1.31-1.48s0.51-0.74,0.62-1.05c0.11-0.31,0.17-0.64,0.17-0.99v-0.02
					c0-0.43-0.1-0.82-0.3-1.15c-0.2-0.33-0.48-0.6-0.83-0.79c-0.36-0.19-0.76-0.29-1.23-0.29c-0.53,0-1,0.11-1.42,0.33
					c-0.42,0.22-0.74,0.51-0.98,0.88s-0.36,0.78-0.36,1.24v0.04h-1.53V390c0-0.73,0.19-1.39,0.57-1.96
					c0.38-0.58,0.89-1.03,1.54-1.36s1.36-0.5,2.15-0.5c0.77,0,1.45,0.16,2.05,0.47s1.07,0.73,1.41,1.27
					c0.34,0.53,0.51,1.13,0.51,1.79v0.02c0,0.46-0.09,0.91-0.26,1.34c-0.17,0.43-0.47,0.92-0.9,1.46s-1.03,1.21-1.81,2.01
					l-3.48,3.57l0.47-0.98v0.98l-0.47-0.44h6.66v1.41h-8.37V397.98z"/>
				<path d="M534,398.48c-0.7-0.53-1.23-1.29-1.6-2.27s-0.55-2.14-0.55-3.48v-0.02c0-1.34,0.18-2.5,0.55-3.48s0.9-1.73,1.6-2.26
					c0.69-0.53,1.53-0.8,2.5-0.8s1.81,0.27,2.5,0.8s1.23,1.28,1.6,2.26c0.37,0.98,0.56,2.14,0.56,3.48v0.02
					c0,1.34-0.19,2.5-0.56,3.48c-0.37,0.98-0.91,1.73-1.6,2.27s-1.53,0.8-2.5,0.8S534.69,399.01,534,398.48z M538.15,397.27
					c0.46-0.42,0.81-1.02,1.05-1.79s0.37-1.69,0.37-2.75v-0.02c0-1.06-0.12-1.98-0.37-2.75c-0.24-0.77-0.59-1.36-1.05-1.78
					s-1.01-0.62-1.66-0.62s-1.2,0.21-1.65,0.62s-0.81,1.01-1.05,1.78c-0.24,0.77-0.36,1.69-0.36,2.75v0.02
					c0,1.06,0.12,1.98,0.36,2.75s0.59,1.37,1.05,1.79s1.01,0.63,1.65,0.63S537.69,397.69,538.15,397.27z"/>
				<path d="M549.02,396.43h-6.37V395c0.37-0.57,0.74-1.15,1.11-1.72s0.74-1.15,1.12-1.72c0.37-0.57,0.74-1.15,1.11-1.72
					s0.74-1.15,1.11-1.72s0.74-1.15,1.11-1.72h2.34v8.66h1.79v1.39h-1.79v2.64h-1.53V396.43z M549.02,395.04v-7.3h-0.05
					c-0.32,0.49-0.63,0.97-0.95,1.45c-0.32,0.48-0.63,0.97-0.95,1.45c-0.32,0.48-0.63,0.97-0.95,1.45s-0.64,0.97-0.95,1.45
					c-0.32,0.48-0.63,0.97-0.95,1.46v0.04H549.02z"/>
				<path d="M555.79,398.48c-0.7-0.53-1.23-1.29-1.6-2.27s-0.55-2.14-0.55-3.48v-0.02c0-1.34,0.18-2.5,0.55-3.48s0.9-1.73,1.6-2.26
					c0.69-0.53,1.53-0.8,2.5-0.8s1.81,0.27,2.5,0.8s1.23,1.28,1.6,2.26c0.37,0.98,0.56,2.14,0.56,3.48v0.02
					c0,1.34-0.19,2.5-0.56,3.48c-0.37,0.98-0.91,1.73-1.6,2.27s-1.53,0.8-2.5,0.8S556.49,399.01,555.79,398.48z M559.95,397.27
					c0.46-0.42,0.81-1.02,1.05-1.79s0.37-1.69,0.37-2.75v-0.02c0-1.06-0.12-1.98-0.37-2.75c-0.24-0.77-0.59-1.36-1.05-1.78
					s-1.01-0.62-1.66-0.62s-1.2,0.21-1.65,0.62s-0.81,1.01-1.05,1.78c-0.24,0.77-0.36,1.69-0.36,2.75v0.02
					c0,1.06,0.12,1.98,0.36,2.75s0.59,1.37,1.05,1.79s1.01,0.63,1.65,0.63S559.49,397.69,559.95,397.27z"/>
			</g>
		</g>
	</g>
	<g>
		<g>
			<g>
				<path d="M3.93,397.98l4.46-4.66c0.57-0.6,1.01-1.09,1.31-1.48s0.51-0.74,0.62-1.05c0.11-0.31,0.17-0.64,0.17-0.99v-0.02
					c0-0.43-0.1-0.82-0.3-1.15c-0.2-0.33-0.48-0.6-0.83-0.79c-0.36-0.19-0.76-0.29-1.23-0.29c-0.53,0-1,0.11-1.42,0.33
					c-0.42,0.22-0.74,0.51-0.98,0.88s-0.36,0.78-0.36,1.24v0.04H3.85V390c0-0.73,0.19-1.39,0.57-1.96c0.38-0.58,0.89-1.03,1.54-1.36
					s1.36-0.5,2.15-0.5c0.77,0,1.45,0.16,2.05,0.47s1.07,0.73,1.41,1.27c0.34,0.53,0.51,1.13,0.51,1.79v0.02
					c0,0.46-0.09,0.91-0.26,1.34c-0.17,0.43-0.47,0.92-0.9,1.46s-1.03,1.21-1.81,2.01l-3.48,3.57l0.47-0.98v0.98l-0.47-0.44h6.66
					v1.41H3.93V397.98z"/>
				<path d="M16.03,398.48c-0.7-0.53-1.23-1.29-1.6-2.27s-0.55-2.14-0.55-3.48v-0.02c0-1.34,0.18-2.5,0.55-3.48s0.9-1.73,1.6-2.26
					c0.69-0.53,1.53-0.8,2.5-0.8s1.81,0.27,2.5,0.8s1.23,1.28,1.6,2.26c0.37,0.98,0.56,2.14,0.56,3.48v0.02
					c0,1.34-0.19,2.5-0.56,3.48c-0.37,0.98-0.91,1.73-1.6,2.27s-1.53,0.8-2.5,0.8S16.73,399.01,16.03,398.48z M20.19,397.27
					c0.46-0.42,0.81-1.02,1.05-1.79s0.37-1.69,0.37-2.75v-0.02c0-1.06-0.12-1.98-0.37-2.75c-0.24-0.77-0.59-1.36-1.05-1.78
					s-1.01-0.62-1.66-0.62s-1.2,0.21-1.65,0.62s-0.81,1.01-1.05,1.78c-0.24,0.77-0.36,1.69-0.36,2.75v0.02
					c0,1.06,0.12,1.98,0.36,2.75s0.59,1.37,1.05,1.79s1.01,0.63,1.65,0.63S19.73,397.69,20.19,397.27z"/>
				<path d="M25.03,397.98l4.46-4.66c0.57-0.6,1.01-1.09,1.31-1.48s0.51-0.74,0.62-1.05c0.11-0.31,0.17-0.64,0.17-0.99v-0.02
					c0-0.43-0.1-0.82-0.3-1.15c-0.2-0.33-0.48-0.6-0.83-0.79c-0.36-0.19-0.76-0.29-1.23-0.29c-0.53,0-1,0.11-1.42,0.33
					c-0.42,0.22-0.74,0.51-0.98,0.88s-0.36,0.78-0.36,1.24v0.04h-1.53V390c0-0.73,0.19-1.39,0.57-1.96
					c0.38-0.58,0.89-1.03,1.54-1.36s1.36-0.5,2.15-0.5c0.77,0,1.45,0.16,2.05,0.47s1.07,0.73,1.41,1.27
					c0.34,0.53,0.51,1.13,0.51,1.79v0.02c0,0.46-0.09,0.91-0.26,1.34c-0.17,0.43-0.47,0.92-0.9,1.46s-1.03,1.21-1.81,2.01
					l-3.48,3.57l0.47-0.98v0.98l-0.47-0.44h6.66v1.41h-8.37V397.98z"/>
				<path d="M37.14,398.48c-0.7-0.53-1.23-1.29-1.6-2.27s-0.55-2.14-0.55-3.48v-0.02c0-1.34,0.18-2.5,0.55-3.48s0.9-1.73,1.6-2.26
					c0.69-0.53,1.53-0.8,2.5-0.8s1.81,0.27,2.5,0.8s1.23,1.28,1.6,2.26c0.37,0.98,0.56,2.14,0.56,3.48v0.02
					c0,1.34-0.19,2.5-0.56,3.48c-0.37,0.98-0.91,1.73-1.6,2.27s-1.53,0.8-2.5,0.8S37.83,399.01,37.14,398.48z M41.29,397.27
					c0.46-0.42,0.81-1.02,1.05-1.79s0.37-1.69,0.37-2.75v-0.02c0-1.06-0.12-1.98-0.37-2.75c-0.24-0.77-0.59-1.36-1.05-1.78
					s-1.01-0.62-1.66-0.62s-1.2,0.21-1.65,0.62s-0.81,1.01-1.05,1.78c-0.24,0.77-0.36,1.69-0.36,2.75v0.02
					c0,1.06,0.12,1.98,0.36,2.75s0.59,1.37,1.05,1.79s1.01,0.63,1.65,0.63S40.83,397.69,41.29,397.27z"/>
			</g>
		</g>
	</g>
	<g>
		<g>
			<path d="M68.37,144.74h4.26c1.25,0,2.33,0.25,3.22,0.75s1.57,1.22,2.05,2.16s0.72,2.08,0.72,3.41v0.02
				c0,1.33-0.24,2.47-0.71,3.42s-1.16,1.67-2.05,2.18s-1.97,0.75-3.23,0.75h-4.26V144.74z M72.52,156c0.96,0,1.77-0.19,2.44-0.57
				s1.17-0.94,1.52-1.67s0.52-1.62,0.52-2.67v-0.02c0-1.05-0.17-1.95-0.52-2.68s-0.85-1.29-1.52-1.67s-1.48-0.57-2.44-0.57h-2.58
				V156H72.52z"/>
			<path d="M81.85,157.02c-0.63-0.39-1.11-0.93-1.45-1.64s-0.51-1.54-0.51-2.49v-0.01c0-0.94,0.17-1.77,0.51-2.49
				s0.82-1.28,1.43-1.68s1.34-0.6,2.17-0.6s1.55,0.19,2.15,0.58s1.06,0.92,1.38,1.61s0.48,1.49,0.48,2.41v0.56h-7.37v-1.2h6.61
				l-0.77,1.11v-0.59c0-0.71-0.11-1.29-0.32-1.76s-0.51-0.81-0.88-1.03s-0.81-0.34-1.29-0.34s-0.92,0.12-1.31,0.36
				s-0.69,0.59-0.91,1.05s-0.33,1.04-0.33,1.72v0.59c0,0.64,0.11,1.2,0.33,1.65s0.53,0.81,0.94,1.05s0.88,0.36,1.43,0.36
				c0.39,0,0.73-0.06,1.04-0.18s0.56-0.28,0.76-0.48s0.35-0.44,0.44-0.7l0.03-0.08h1.5l-0.02,0.09c-0.08,0.38-0.22,0.73-0.44,1.05
				s-0.49,0.62-0.82,0.87s-0.71,0.44-1.14,0.58s-0.89,0.21-1.39,0.21C83.23,157.6,82.48,157.4,81.85,157.02z"/>
			<path d="M90.95,157.25c-0.52-0.23-0.93-0.55-1.23-0.96s-0.48-0.89-0.55-1.43l-0.01-0.08h1.53l0.02,0.09
				c0.09,0.46,0.31,0.81,0.66,1.07s0.83,0.38,1.45,0.38c0.42,0,0.77-0.05,1.06-0.16s0.52-0.26,0.68-0.47s0.24-0.44,0.24-0.72v-0.01
				c0-0.33-0.1-0.59-0.3-0.79s-0.56-0.36-1.08-0.49l-1.45-0.35c-0.86-0.21-1.5-0.51-1.92-0.93s-0.63-0.95-0.63-1.6v-0.01
				c0-0.53,0.14-0.99,0.43-1.4s0.68-0.72,1.19-0.95s1.09-0.34,1.74-0.34c0.67,0,1.25,0.12,1.74,0.36s0.88,0.56,1.17,0.97
				s0.44,0.87,0.48,1.38l0.01,0.11h-1.46l-0.01-0.06c-0.06-0.45-0.25-0.8-0.58-1.07s-0.78-0.4-1.35-0.4c-0.37,0-0.69,0.06-0.96,0.17
				s-0.48,0.27-0.62,0.47s-0.22,0.44-0.22,0.71v0.01c0,0.31,0.11,0.57,0.33,0.79s0.59,0.39,1.09,0.51l1.45,0.35
				c0.93,0.22,1.58,0.53,1.95,0.92s0.56,0.91,0.56,1.56v0.01c0,0.53-0.15,1-0.46,1.42s-0.73,0.73-1.27,0.96s-1.14,0.35-1.82,0.35
				C92.09,157.6,91.47,157.48,90.95,157.25z"/>
			<path d="M99.48,157.01c-0.64-0.39-1.13-0.94-1.47-1.65s-0.52-1.55-0.52-2.52v-0.01c0-0.96,0.18-1.8,0.53-2.5s0.84-1.26,1.48-1.64
				s1.37-0.58,2.21-0.58c0.76,0,1.42,0.15,1.96,0.44s0.97,0.68,1.29,1.15s0.5,0.96,0.57,1.49l0.01,0.07h-1.49l-0.02-0.07
				c-0.11-0.46-0.36-0.86-0.73-1.2s-0.9-0.52-1.58-0.52c-0.53,0-0.99,0.14-1.39,0.42s-0.71,0.67-0.93,1.18s-0.33,1.11-0.33,1.8v0.01
				c0,0.71,0.11,1.32,0.34,1.82s0.54,0.89,0.94,1.16s0.87,0.4,1.39,0.4c0.63,0,1.14-0.16,1.52-0.48s0.65-0.73,0.78-1.24l0.02-0.07
				h1.5l-0.01,0.06c-0.08,0.58-0.29,1.1-0.64,1.57s-0.79,0.83-1.33,1.11s-1.16,0.41-1.85,0.41
				C100.87,157.6,100.12,157.4,99.48,157.01z"/>
			<path d="M106.96,148.28h1.53v1.55h0.04c0.15-0.53,0.42-0.95,0.79-1.26s0.82-0.47,1.34-0.47c0.13,0,0.26,0.01,0.36,0.02
				s0.19,0.03,0.25,0.04v1.49c-0.06-0.02-0.16-0.04-0.31-0.06s-0.32-0.03-0.51-0.03c-0.39,0-0.74,0.09-1.03,0.26
				s-0.52,0.43-0.69,0.76s-0.24,0.73-0.24,1.19v5.64h-1.53V148.28z"/>
			<path d="M112.69,146.45c-0.19-0.19-0.28-0.41-0.28-0.68c0-0.27,0.09-0.5,0.28-0.68s0.41-0.28,0.68-0.28
				c0.27,0,0.5,0.09,0.68,0.28s0.28,0.41,0.28,0.68c0,0.26-0.09,0.49-0.28,0.68s-0.41,0.28-0.68,0.28
				C113.1,146.73,112.88,146.64,112.69,146.45z M112.6,148.28h1.53v9.14h-1.53V148.28z"/>
			<path d="M116.21,148.28h1.53v1.55h0.04c0.19-0.36,0.43-0.66,0.72-0.92s0.61-0.45,0.98-0.59s0.77-0.21,1.2-0.21
				c0.78,0,1.46,0.19,2.04,0.58s1.04,0.94,1.36,1.65s0.48,1.55,0.48,2.51v0.01c0,0.96-0.16,1.8-0.49,2.5s-0.78,1.26-1.35,1.65
				s-1.25,0.58-2.02,0.58c-0.43,0-0.83-0.07-1.2-0.21s-0.71-0.33-1-0.59s-0.53-0.56-0.73-0.91h-0.04v4.61h-1.53V148.28z
				 M121.78,155.83c0.39-0.28,0.69-0.67,0.91-1.17s0.32-1.11,0.32-1.8v-0.01c0-0.7-0.11-1.31-0.32-1.81s-0.51-0.9-0.91-1.17
				s-0.86-0.41-1.4-0.41c-0.52,0-0.97,0.14-1.37,0.42s-0.71,0.68-0.94,1.18s-0.34,1.1-0.34,1.79v0.01c0,0.68,0.11,1.27,0.34,1.78
				s0.54,0.9,0.94,1.18s0.85,0.42,1.37,0.42C120.92,156.24,121.38,156.1,121.78,155.83z"/>
			<path d="M127.19,157c-0.42-0.4-0.62-1.03-0.62-1.91v-5.55h-1.34v-1.27h1.34v-2.47h1.58v2.47h1.74v1.27h-1.74v5.54
				c0,0.49,0.11,0.82,0.32,0.99s0.52,0.26,0.93,0.26c0.09,0,0.18,0,0.27-0.01s0.16-0.02,0.22-0.02v1.24
				c-0.09,0.01-0.22,0.02-0.36,0.04s-0.3,0.02-0.45,0.02C128.23,157.6,127.61,157.4,127.19,157z"/>
			<path d="M131.71,146.45c-0.19-0.19-0.28-0.41-0.28-0.68c0-0.27,0.09-0.5,0.28-0.68s0.41-0.28,0.68-0.28
				c0.27,0,0.5,0.09,0.68,0.28s0.28,0.41,0.28,0.68c0,0.26-0.09,0.49-0.28,0.68s-0.41,0.28-0.68,0.28
				C132.12,146.73,131.9,146.64,131.71,146.45z M131.62,148.28h1.53v9.14h-1.53V148.28z"/>
			<path d="M136.8,157.02c-0.64-0.39-1.13-0.94-1.49-1.65s-0.53-1.55-0.53-2.52v-0.02c0-0.97,0.18-1.81,0.53-2.52
				s0.85-1.25,1.49-1.63s1.37-0.58,2.21-0.58c0.84,0,1.58,0.19,2.22,0.58s1.13,0.93,1.49,1.63s0.53,1.55,0.53,2.52v0.02
				c0,0.97-0.18,1.81-0.53,2.52s-0.85,1.26-1.48,1.64s-1.37,0.58-2.21,0.58S137.44,157.4,136.8,157.02z M140.43,155.84
				c0.4-0.27,0.7-0.65,0.92-1.16s0.33-1.12,0.33-1.83v-0.02c0-0.71-0.11-1.32-0.33-1.83s-0.53-0.89-0.93-1.15s-0.87-0.4-1.41-0.4
				c-0.53,0-0.99,0.13-1.39,0.4s-0.71,0.65-0.94,1.15s-0.33,1.11-0.33,1.82v0.02c0,0.71,0.11,1.33,0.33,1.83s0.53,0.89,0.94,1.16
				s0.87,0.4,1.41,0.4S140.04,156.11,140.43,155.84z"/>
			<path d="M144.79,148.28h1.53v1.3h0.04c0.25-0.43,0.6-0.78,1.07-1.06s1.05-0.42,1.74-0.42c1,0,1.78,0.3,2.33,0.91
				s0.83,1.43,0.83,2.47v5.93h-1.53v-5.66c0-0.74-0.17-1.31-0.52-1.71s-0.87-0.59-1.58-0.59c-0.48,0-0.9,0.11-1.26,0.32
				s-0.63,0.51-0.83,0.9s-0.29,0.84-0.29,1.36v5.38h-1.53V148.28z"/>
			<path d="M159.53,157.02c-0.64-0.39-1.13-0.94-1.49-1.65s-0.53-1.55-0.53-2.52v-0.02c0-0.97,0.18-1.81,0.53-2.52
				s0.85-1.25,1.49-1.63s1.37-0.58,2.21-0.58c0.84,0,1.58,0.19,2.22,0.58s1.13,0.93,1.49,1.63s0.53,1.55,0.53,2.52v0.02
				c0,0.97-0.18,1.81-0.53,2.52s-0.85,1.26-1.48,1.64s-1.37,0.58-2.21,0.58S160.17,157.4,159.53,157.02z M163.16,155.84
				c0.4-0.27,0.7-0.65,0.92-1.16s0.33-1.12,0.33-1.83v-0.02c0-0.71-0.11-1.32-0.33-1.83s-0.53-0.89-0.93-1.15s-0.87-0.4-1.41-0.4
				c-0.53,0-0.99,0.13-1.39,0.4s-0.71,0.65-0.94,1.15s-0.33,1.11-0.33,1.82v0.02c0,0.71,0.11,1.33,0.33,1.83s0.53,0.89,0.94,1.16
				s0.87,0.4,1.41,0.4S162.76,156.11,163.16,155.84z"/>
			<path d="M168.01,149.54h-1.27v-1.27h1.27v-1.12c0-0.88,0.21-1.53,0.62-1.96s1.04-0.64,1.89-0.64c0.17,0,0.34,0.01,0.51,0.02
				s0.31,0.03,0.42,0.04v1.24c-0.09-0.01-0.2-0.02-0.31-0.03s-0.23-0.01-0.35-0.01c-0.42,0-0.74,0.11-0.95,0.33
				s-0.32,0.56-0.32,1.01v1.12h1.88v1.27h-1.86v7.88h-1.53V149.54z"/>
			<path d="M177.76,157c-0.42-0.4-0.62-1.03-0.62-1.91v-5.55h-1.34v-1.27h1.34v-2.47h1.58v2.47h1.74v1.27h-1.74v5.54
				c0,0.49,0.11,0.82,0.32,0.99s0.52,0.26,0.93,0.26c0.09,0,0.18,0,0.27-0.01s0.16-0.02,0.22-0.02v1.24
				c-0.09,0.01-0.22,0.02-0.36,0.04s-0.3,0.02-0.45,0.02C178.81,157.6,178.18,157.4,177.76,157z"/>
			<path d="M182.17,144.74h1.53v5h0.04c0.25-0.52,0.61-0.92,1.1-1.2s1.07-0.43,1.75-0.43c0.65,0,1.22,0.16,1.71,0.47
				s0.87,0.75,1.15,1.31s0.41,1.2,0.41,1.94v5.6h-1.53v-5.33c0-0.83-0.2-1.47-0.6-1.93s-0.96-0.69-1.67-0.69
				c-0.47,0-0.88,0.11-1.23,0.33s-0.63,0.53-0.83,0.92s-0.29,0.85-0.29,1.37v5.33h-1.53V144.74z"/>
			<path d="M193.31,157.02c-0.63-0.39-1.11-0.93-1.45-1.64s-0.51-1.54-0.51-2.49v-0.01c0-0.94,0.17-1.77,0.51-2.49
				s0.82-1.28,1.43-1.68s1.34-0.6,2.17-0.6s1.55,0.19,2.15,0.58s1.06,0.92,1.38,1.61s0.48,1.49,0.48,2.41v0.56h-7.37v-1.2h6.61
				l-0.77,1.11v-0.59c0-0.71-0.11-1.29-0.32-1.76s-0.51-0.81-0.88-1.03s-0.81-0.34-1.29-0.34s-0.92,0.12-1.31,0.36
				s-0.69,0.59-0.91,1.05s-0.33,1.04-0.33,1.72v0.59c0,0.64,0.11,1.2,0.33,1.65s0.53,0.81,0.94,1.05s0.88,0.36,1.43,0.36
				c0.39,0,0.73-0.06,1.04-0.18s0.56-0.28,0.76-0.48s0.35-0.44,0.44-0.7l0.03-0.08h1.5l-0.02,0.09c-0.08,0.38-0.22,0.73-0.44,1.05
				s-0.49,0.62-0.82,0.87s-0.71,0.44-1.14,0.58s-0.89,0.21-1.39,0.21C194.69,157.6,193.94,157.4,193.31,157.02z"/>
			<path d="M68.13,169.88h1.53v1.34h0.04c0.21-0.45,0.53-0.82,0.97-1.09s0.95-0.42,1.54-0.42c0.42,0,0.79,0.07,1.13,0.21
				s0.63,0.34,0.87,0.6s0.43,0.58,0.56,0.95h0.04c0.17-0.37,0.4-0.68,0.68-0.94s0.61-0.46,0.98-0.6s0.77-0.21,1.2-0.21
				c0.6,0,1.13,0.12,1.57,0.37s0.79,0.6,1.04,1.05s0.37,0.98,0.37,1.59v6.31h-1.53v-5.96c0-0.63-0.17-1.12-0.5-1.47
				s-0.8-0.53-1.4-0.53c-0.4,0-0.76,0.09-1.07,0.28s-0.55,0.44-0.73,0.76s-0.26,0.7-0.26,1.11v5.81h-1.53v-6.13
				c0-0.56-0.17-1-0.51-1.34s-0.79-0.5-1.36-0.5c-0.4,0-0.76,0.1-1.08,0.29s-0.56,0.46-0.74,0.8s-0.27,0.71-0.27,1.14v5.73h-1.53
				V169.88z"/>
			<path d="M83.67,178.85c-0.46-0.23-0.81-0.55-1.07-0.97s-0.38-0.9-0.38-1.45v-0.02c0-0.78,0.29-1.4,0.87-1.87s1.39-0.73,2.44-0.79
				l3.38-0.19v1.19l-3.21,0.19c-0.61,0.04-1.08,0.18-1.42,0.44s-0.51,0.6-0.51,1.03v0.02c0,0.44,0.17,0.79,0.5,1.05
				s0.77,0.39,1.32,0.39c0.48,0,0.91-0.1,1.3-0.3s0.69-0.48,0.91-0.83s0.34-0.75,0.34-1.19v-2.7c0-0.56-0.17-0.99-0.52-1.31
				s-0.84-0.48-1.48-0.48c-0.59,0-1.06,0.13-1.42,0.38s-0.58,0.59-0.67,1l-0.02,0.08h-1.48l0.01-0.1c0.05-0.5,0.22-0.96,0.51-1.37
				s0.7-0.74,1.23-0.98s1.14-0.36,1.85-0.36c0.72,0,1.34,0.12,1.87,0.37s0.93,0.59,1.22,1.04s0.43,0.98,0.43,1.59v6.32h-1.53v-1.49
				h-0.04c-0.18,0.33-0.41,0.63-0.7,0.87s-0.62,0.44-0.99,0.58s-0.75,0.21-1.16,0.21C84.65,179.2,84.12,179.08,83.67,178.85z"/>
			<path d="M90.25,182.1c-0.05,0-0.1,0-0.15-0.01v-1.34c0.04,0,0.08,0,0.12,0s0.08,0,0.12,0c0.5,0,0.85-0.09,1.05-0.28
				s0.3-0.54,0.3-1.05v-9.54h1.53v9.53c0,0.93-0.23,1.61-0.68,2.04s-1.17,0.65-2.15,0.65C90.35,182.1,90.3,182.1,90.25,182.1z
				 M91.79,168.05c-0.19-0.19-0.28-0.41-0.28-0.68c0-0.27,0.09-0.5,0.28-0.68s0.41-0.28,0.68-0.28c0.27,0,0.5,0.09,0.68,0.28
				s0.28,0.41,0.28,0.68c0,0.26-0.09,0.49-0.28,0.68s-0.41,0.28-0.68,0.28C92.2,168.33,91.98,168.24,91.79,168.05z"/>
			<path d="M96.88,178.62c-0.64-0.39-1.13-0.94-1.49-1.65s-0.53-1.55-0.53-2.52v-0.02c0-0.97,0.18-1.81,0.53-2.52
				s0.85-1.25,1.49-1.63s1.37-0.58,2.21-0.58c0.84,0,1.58,0.19,2.22,0.58s1.13,0.93,1.49,1.63s0.53,1.55,0.53,2.52v0.02
				c0,0.97-0.18,1.81-0.53,2.52s-0.85,1.26-1.48,1.64s-1.37,0.58-2.21,0.58S97.52,179,96.88,178.62z M100.51,177.44
				c0.4-0.27,0.7-0.65,0.92-1.16s0.33-1.12,0.33-1.83v-0.02c0-0.71-0.11-1.32-0.33-1.83s-0.53-0.89-0.93-1.15s-0.87-0.4-1.41-0.4
				c-0.53,0-0.99,0.13-1.39,0.4s-0.71,0.65-0.94,1.15s-0.33,1.11-0.33,1.82v0.02c0,0.71,0.11,1.33,0.33,1.83s0.53,0.89,0.94,1.16
				s0.87,0.4,1.41,0.4S100.12,177.71,100.51,177.44z"/>
			<path d="M104.87,169.88h1.53v1.55h0.04c0.15-0.53,0.42-0.95,0.79-1.26s0.82-0.47,1.34-0.47c0.13,0,0.26,0.01,0.36,0.02
				s0.19,0.03,0.25,0.04v1.49c-0.06-0.02-0.16-0.04-0.31-0.06s-0.32-0.03-0.51-0.03c-0.39,0-0.74,0.09-1.03,0.26
				s-0.52,0.43-0.69,0.76s-0.24,0.73-0.24,1.19v5.64h-1.53V169.88z"/>
			<path d="M114.1,169.88h1.53v1.34h0.04c0.21-0.45,0.53-0.82,0.97-1.09s0.95-0.42,1.54-0.42c0.42,0,0.79,0.07,1.13,0.21
				s0.63,0.34,0.87,0.6s0.43,0.58,0.56,0.95h0.04c0.17-0.37,0.4-0.68,0.68-0.94s0.61-0.46,0.98-0.6s0.77-0.21,1.2-0.21
				c0.6,0,1.13,0.12,1.57,0.37s0.79,0.6,1.04,1.05s0.37,0.98,0.37,1.59v6.31h-1.53v-5.96c0-0.63-0.17-1.12-0.5-1.47
				s-0.8-0.53-1.4-0.53c-0.4,0-0.76,0.09-1.07,0.28s-0.55,0.44-0.73,0.76s-0.26,0.7-0.26,1.11v5.81h-1.53v-6.13
				c0-0.56-0.17-1-0.51-1.34s-0.79-0.5-1.36-0.5c-0.4,0-0.76,0.1-1.08,0.29s-0.56,0.46-0.74,0.8s-0.27,0.71-0.27,1.14v5.73h-1.53
				V169.88z"/>
			<path d="M128.75,168.05c-0.19-0.19-0.28-0.41-0.28-0.68c0-0.27,0.09-0.5,0.28-0.68s0.41-0.28,0.68-0.28
				c0.27,0,0.5,0.09,0.68,0.28s0.28,0.41,0.28,0.68c0,0.26-0.09,0.49-0.28,0.68s-0.41,0.28-0.68,0.28
				C129.16,168.33,128.93,168.24,128.75,168.05z M128.66,169.88h1.53v9.14h-1.53V169.88z"/>
			<path d="M132.35,166.34h1.53v12.68h-1.53V166.34z"/>
			<path d="M137.45,178.62c-0.63-0.39-1.11-0.93-1.45-1.64s-0.51-1.54-0.51-2.49v-0.01c0-0.94,0.17-1.77,0.51-2.49
				s0.82-1.28,1.43-1.68s1.34-0.6,2.17-0.6s1.55,0.19,2.15,0.58s1.06,0.92,1.38,1.61s0.48,1.49,0.48,2.41v0.56h-7.37v-1.2h6.61
				l-0.77,1.11v-0.59c0-0.71-0.11-1.29-0.32-1.76s-0.51-0.81-0.88-1.03s-0.81-0.34-1.29-0.34s-0.92,0.12-1.31,0.36
				s-0.69,0.59-0.91,1.05s-0.33,1.04-0.33,1.72v0.59c0,0.64,0.11,1.2,0.33,1.65s0.53,0.81,0.94,1.05s0.88,0.36,1.43,0.36
				c0.39,0,0.73-0.06,1.04-0.18s0.56-0.28,0.76-0.48s0.35-0.44,0.44-0.7l0.03-0.08h1.5l-0.02,0.09c-0.08,0.38-0.22,0.73-0.44,1.05
				s-0.49,0.62-0.82,0.87s-0.71,0.44-1.14,0.58s-0.89,0.21-1.39,0.21C138.83,179.2,138.08,179,137.45,178.62z"/>
			<path d="M146.55,178.85c-0.52-0.23-0.93-0.55-1.23-0.96s-0.48-0.89-0.55-1.43l-0.01-0.08h1.53l0.02,0.09
				c0.09,0.46,0.31,0.81,0.66,1.07s0.83,0.38,1.45,0.38c0.42,0,0.77-0.05,1.06-0.16s0.52-0.26,0.68-0.47s0.24-0.44,0.24-0.72v-0.01
				c0-0.33-0.1-0.59-0.3-0.79s-0.56-0.36-1.08-0.49l-1.45-0.35c-0.86-0.21-1.5-0.51-1.92-0.93s-0.63-0.95-0.63-1.6v-0.01
				c0-0.53,0.14-0.99,0.43-1.4s0.68-0.72,1.19-0.95s1.09-0.34,1.74-0.34c0.67,0,1.25,0.12,1.74,0.36s0.88,0.56,1.17,0.97
				s0.44,0.87,0.48,1.38l0.01,0.11h-1.46l-0.01-0.06c-0.06-0.45-0.25-0.8-0.58-1.07s-0.78-0.4-1.35-0.4c-0.37,0-0.69,0.06-0.96,0.17
				s-0.48,0.27-0.62,0.47s-0.22,0.44-0.22,0.71v0.01c0,0.31,0.11,0.57,0.33,0.79s0.59,0.39,1.09,0.51l1.45,0.35
				c0.93,0.22,1.58,0.53,1.95,0.92s0.56,0.91,0.56,1.56v0.01c0,0.53-0.15,1-0.46,1.42s-0.73,0.73-1.27,0.96s-1.14,0.35-1.82,0.35
				C147.69,179.2,147.07,179.08,146.55,178.85z"/>
			<path d="M154.63,178.6c-0.42-0.4-0.62-1.03-0.62-1.91v-5.55h-1.34v-1.27h1.34v-2.47h1.58v2.47h1.74v1.27h-1.74v5.54
				c0,0.49,0.11,0.82,0.32,0.99s0.52,0.26,0.93,0.26c0.09,0,0.18,0,0.27-0.01s0.16-0.02,0.22-0.02v1.24
				c-0.09,0.01-0.22,0.02-0.36,0.04s-0.3,0.02-0.45,0.02C155.67,179.2,155.05,179,154.63,178.6z"/>
			<path d="M160.53,178.62c-0.64-0.39-1.13-0.94-1.49-1.65s-0.53-1.55-0.53-2.52v-0.02c0-0.97,0.18-1.81,0.53-2.52
				s0.85-1.25,1.49-1.63s1.37-0.58,2.21-0.58c0.84,0,1.58,0.19,2.22,0.58s1.13,0.93,1.49,1.63s0.53,1.55,0.53,2.52v0.02
				c0,0.97-0.18,1.81-0.53,2.52s-0.85,1.26-1.48,1.64s-1.37,0.58-2.21,0.58S161.17,179,160.53,178.62z M164.16,177.44
				c0.4-0.27,0.7-0.65,0.92-1.16s0.33-1.12,0.33-1.83v-0.02c0-0.71-0.11-1.32-0.33-1.83s-0.53-0.89-0.93-1.15s-0.87-0.4-1.41-0.4
				c-0.53,0-0.99,0.13-1.39,0.4s-0.71,0.65-0.94,1.15s-0.33,1.11-0.33,1.82v0.02c0,0.71,0.11,1.33,0.33,1.83s0.53,0.89,0.94,1.16
				s0.87,0.4,1.41,0.4S163.77,177.71,164.16,177.44z"/>
			<path d="M168.52,169.88h1.53v1.3h0.04c0.25-0.43,0.6-0.78,1.07-1.06s1.05-0.42,1.74-0.42c1,0,1.78,0.3,2.33,0.91
				s0.83,1.43,0.83,2.47v5.93h-1.53v-5.66c0-0.74-0.17-1.31-0.52-1.71s-0.87-0.59-1.58-0.59c-0.48,0-0.9,0.11-1.26,0.32
				s-0.63,0.51-0.83,0.9s-0.29,0.84-0.29,1.36v5.38h-1.53V169.88z"/>
			<path d="M179.51,178.62c-0.63-0.39-1.11-0.93-1.45-1.64s-0.51-1.54-0.51-2.49v-0.01c0-0.94,0.17-1.77,0.51-2.49
				s0.82-1.28,1.43-1.68s1.34-0.6,2.17-0.6s1.55,0.19,2.15,0.58s1.06,0.92,1.38,1.61s0.48,1.49,0.48,2.41v0.56h-7.37v-1.2h6.61
				l-0.77,1.11v-0.59c0-0.71-0.11-1.29-0.32-1.76s-0.51-0.81-0.88-1.03s-0.81-0.34-1.29-0.34s-0.92,0.12-1.31,0.36
				s-0.69,0.59-0.91,1.05s-0.33,1.04-0.33,1.72v0.59c0,0.64,0.11,1.2,0.33,1.65s0.53,0.81,0.94,1.05s0.88,0.36,1.43,0.36
				c0.39,0,0.73-0.06,1.04-0.18s0.56-0.28,0.76-0.48s0.35-0.44,0.44-0.7l0.03-0.08h1.5l-0.02,0.09c-0.08,0.38-0.22,0.73-0.44,1.05
				s-0.49,0.62-0.82,0.87s-0.71,0.44-1.14,0.58s-0.89,0.21-1.39,0.21C180.89,179.2,180.14,179,179.51,178.62z"/>
		</g>
	</g>
	<g>
		<g>
			<path d="M146.11,219.52h4.26c1.25,0,2.33,0.25,3.22,0.75s1.57,1.22,2.05,2.16s0.72,2.08,0.72,3.41v0.02
				c0,1.33-0.24,2.47-0.71,3.42s-1.16,1.67-2.05,2.17s-1.97,0.75-3.23,0.75h-4.26V219.52z M150.27,230.78
				c0.96,0,1.77-0.19,2.44-0.57s1.17-0.94,1.52-1.67s0.52-1.62,0.52-2.67v-0.02c0-1.05-0.17-1.95-0.52-2.68s-0.85-1.29-1.52-1.67
				s-1.48-0.57-2.44-0.57h-2.58v9.83H150.27z"/>
			<path d="M159.6,231.8c-0.63-0.39-1.11-0.93-1.45-1.64s-0.51-1.54-0.51-2.49v-0.01c0-0.94,0.17-1.77,0.51-2.49
				s0.82-1.28,1.43-1.68s1.34-0.6,2.17-0.6s1.55,0.19,2.15,0.58s1.06,0.92,1.38,1.61s0.48,1.49,0.48,2.41v0.56h-7.37v-1.2h6.61
				l-0.77,1.11v-0.59c0-0.71-0.11-1.29-0.32-1.76s-0.51-0.81-0.88-1.03s-0.81-0.34-1.29-0.34s-0.92,0.12-1.31,0.36
				s-0.69,0.59-0.91,1.05s-0.33,1.04-0.33,1.72v0.59c0,0.64,0.11,1.2,0.33,1.65s0.53,0.81,0.94,1.05s0.88,0.36,1.43,0.36
				c0.39,0,0.73-0.06,1.04-0.18s0.56-0.28,0.76-0.48s0.35-0.44,0.44-0.7l0.03-0.08h1.5l-0.02,0.09c-0.08,0.38-0.22,0.73-0.44,1.05
				s-0.49,0.62-0.82,0.87s-0.71,0.44-1.14,0.58s-0.89,0.21-1.39,0.21C160.98,232.38,160.23,232.19,159.6,231.8z"/>
			<path d="M168.7,232.04c-0.52-0.23-0.93-0.55-1.23-0.96s-0.48-0.89-0.55-1.43l-0.01-0.08h1.53l0.02,0.09
				c0.09,0.46,0.31,0.81,0.66,1.07s0.83,0.38,1.45,0.38c0.42,0,0.77-0.05,1.06-0.16s0.52-0.26,0.68-0.47s0.24-0.44,0.24-0.72v-0.01
				c0-0.33-0.1-0.59-0.3-0.79s-0.56-0.36-1.08-0.49l-1.45-0.35c-0.86-0.21-1.5-0.51-1.92-0.93s-0.63-0.95-0.63-1.6v-0.01
				c0-0.53,0.14-0.99,0.43-1.4s0.68-0.72,1.19-0.95s1.09-0.34,1.74-0.34c0.67,0,1.25,0.12,1.74,0.36s0.88,0.56,1.17,0.97
				s0.44,0.87,0.48,1.38l0.01,0.11h-1.46l-0.01-0.06c-0.06-0.45-0.25-0.8-0.58-1.07s-0.78-0.4-1.35-0.4c-0.37,0-0.69,0.05-0.96,0.17
				s-0.48,0.27-0.62,0.47s-0.22,0.44-0.22,0.71v0.01c0,0.31,0.11,0.57,0.33,0.79s0.59,0.39,1.09,0.51l1.45,0.35
				c0.93,0.22,1.58,0.53,1.95,0.92s0.56,0.91,0.56,1.56v0.01c0,0.53-0.15,1.01-0.46,1.42s-0.73,0.73-1.27,0.96s-1.14,0.35-1.82,0.35
				C169.84,232.38,169.22,232.27,168.7,232.04z"/>
			<path d="M177.23,231.8c-0.64-0.39-1.13-0.94-1.47-1.65s-0.52-1.55-0.52-2.52v-0.01c0-0.96,0.18-1.79,0.53-2.5
				s0.84-1.26,1.48-1.64s1.37-0.58,2.21-0.58c0.76,0,1.42,0.15,1.96,0.44s0.97,0.68,1.29,1.15s0.5,0.96,0.57,1.48l0.01,0.07h-1.49
				l-0.02-0.07c-0.11-0.46-0.36-0.86-0.73-1.2s-0.9-0.52-1.58-0.52c-0.53,0-0.99,0.14-1.39,0.42s-0.71,0.67-0.93,1.18
				s-0.33,1.11-0.33,1.8v0.01c0,0.71,0.11,1.31,0.34,1.82s0.54,0.89,0.94,1.16s0.87,0.4,1.39,0.4c0.63,0,1.14-0.16,1.52-0.48
				s0.65-0.73,0.78-1.24l0.02-0.07h1.5l-0.01,0.06c-0.08,0.58-0.29,1.1-0.64,1.57s-0.79,0.83-1.33,1.11s-1.16,0.41-1.85,0.41
				C178.61,232.38,177.87,232.19,177.23,231.8z"/>
			<path d="M184.7,223.06h1.53v1.55h0.04c0.15-0.53,0.42-0.95,0.79-1.26s0.82-0.47,1.34-0.47c0.13,0,0.26,0.01,0.36,0.02
				s0.19,0.03,0.25,0.04v1.48c-0.06-0.02-0.16-0.04-0.31-0.06s-0.32-0.03-0.51-0.03c-0.39,0-0.74,0.09-1.03,0.26
				s-0.52,0.43-0.69,0.76s-0.24,0.73-0.24,1.19v5.64h-1.53V223.06z"/>
			<path d="M190.44,221.24c-0.19-0.19-0.28-0.41-0.28-0.68c0-0.27,0.09-0.5,0.28-0.68s0.41-0.28,0.68-0.28
				c0.27,0,0.5,0.09,0.68,0.28s0.28,0.41,0.28,0.68c0,0.26-0.09,0.49-0.28,0.68s-0.41,0.28-0.68,0.28
				C190.85,221.52,190.62,221.42,190.44,221.24z M190.35,223.06h1.53v9.14h-1.53V223.06z"/>
			<path d="M193.96,223.06h1.53v1.55h0.04c0.19-0.36,0.43-0.66,0.72-0.92s0.61-0.45,0.98-0.59s0.77-0.21,1.2-0.21
				c0.78,0,1.46,0.2,2.04,0.58s1.04,0.94,1.36,1.65s0.48,1.55,0.48,2.51v0.01c0,0.96-0.16,1.79-0.49,2.5s-0.78,1.26-1.35,1.65
				s-1.25,0.58-2.02,0.58c-0.43,0-0.83-0.07-1.2-0.21s-0.71-0.33-1-0.59s-0.53-0.56-0.73-0.91h-0.04v4.61h-1.53V223.06z
				 M199.52,230.62c0.39-0.28,0.69-0.67,0.91-1.17s0.32-1.11,0.32-1.8v-0.01c0-0.7-0.11-1.31-0.32-1.81s-0.51-0.9-0.91-1.17
				s-0.86-0.41-1.4-0.41c-0.52,0-0.97,0.14-1.37,0.42s-0.71,0.68-0.94,1.18s-0.34,1.1-0.34,1.79v0.01c0,0.68,0.11,1.27,0.34,1.78
				s0.54,0.9,0.94,1.18s0.85,0.42,1.37,0.42C198.66,231.03,199.13,230.89,199.52,230.62z"/>
			<path d="M204.94,231.78c-0.42-0.4-0.62-1.03-0.62-1.91v-5.55h-1.34v-1.27h1.34v-2.47h1.58v2.47h1.74v1.27h-1.74v5.54
				c0,0.49,0.11,0.82,0.32,0.99s0.52,0.26,0.93,0.26c0.09,0,0.18,0,0.27-0.01s0.16-0.02,0.22-0.02v1.24
				c-0.09,0.01-0.22,0.02-0.36,0.04s-0.3,0.02-0.45,0.02C205.98,232.38,205.35,232.18,204.94,231.78z"/>
			<path d="M209.45,221.24c-0.19-0.19-0.28-0.41-0.28-0.68c0-0.27,0.09-0.5,0.28-0.68s0.41-0.28,0.68-0.28
				c0.27,0,0.5,0.09,0.68,0.28s0.28,0.41,0.28,0.68c0,0.26-0.09,0.49-0.28,0.68s-0.41,0.28-0.68,0.28
				C209.87,221.52,209.64,221.42,209.45,221.24z M209.37,223.06h1.53v9.14h-1.53V223.06z"/>
			<path d="M214.55,231.8c-0.64-0.39-1.13-0.94-1.49-1.65s-0.53-1.55-0.53-2.52v-0.02c0-0.97,0.18-1.81,0.53-2.52
				s0.85-1.25,1.49-1.63s1.37-0.58,2.21-0.58c0.84,0,1.58,0.19,2.22,0.58s1.13,0.93,1.49,1.63s0.53,1.54,0.53,2.52v0.02
				c0,0.97-0.18,1.81-0.53,2.52s-0.85,1.26-1.48,1.64s-1.37,0.58-2.21,0.58S215.18,232.19,214.55,231.8z M218.18,230.63
				c0.4-0.27,0.7-0.65,0.92-1.16s0.33-1.12,0.33-1.83v-0.02c0-0.71-0.11-1.32-0.33-1.83s-0.53-0.89-0.93-1.15s-0.87-0.4-1.41-0.4
				c-0.53,0-0.99,0.13-1.39,0.4s-0.71,0.65-0.94,1.15s-0.33,1.11-0.33,1.82v0.02c0,0.71,0.11,1.33,0.33,1.83s0.53,0.89,0.94,1.16
				s0.87,0.4,1.41,0.4S217.78,230.89,218.18,230.63z"/>
			<path d="M222.53,223.06h1.53v1.3h0.04c0.25-0.43,0.6-0.78,1.07-1.06s1.05-0.42,1.74-0.42c1,0,1.78,0.3,2.33,0.91
				s0.83,1.43,0.83,2.47v5.93h-1.53v-5.66c0-0.74-0.17-1.31-0.52-1.71s-0.87-0.59-1.58-0.59c-0.48,0-0.9,0.11-1.26,0.32
				s-0.63,0.51-0.83,0.9s-0.29,0.84-0.29,1.36v5.38h-1.53V223.06z"/>
			<path d="M237.28,231.8c-0.64-0.39-1.13-0.94-1.49-1.65s-0.53-1.55-0.53-2.52v-0.02c0-0.97,0.18-1.81,0.53-2.52
				s0.85-1.25,1.49-1.63s1.37-0.58,2.21-0.58c0.84,0,1.58,0.19,2.22,0.58s1.13,0.93,1.49,1.63s0.53,1.54,0.53,2.52v0.02
				c0,0.97-0.18,1.81-0.53,2.52s-0.85,1.26-1.48,1.64s-1.37,0.58-2.21,0.58S237.91,232.19,237.28,231.8z M240.91,230.63
				c0.4-0.27,0.7-0.65,0.92-1.16s0.33-1.12,0.33-1.83v-0.02c0-0.71-0.11-1.32-0.33-1.83s-0.53-0.89-0.93-1.15s-0.87-0.4-1.41-0.4
				c-0.53,0-0.99,0.13-1.39,0.4s-0.71,0.65-0.94,1.15s-0.33,1.11-0.33,1.82v0.02c0,0.71,0.11,1.33,0.33,1.83s0.53,0.89,0.94,1.16
				s0.87,0.4,1.41,0.4S240.51,230.89,240.91,230.63z"/>
			<path d="M245.75,224.33h-1.27v-1.27h1.27v-1.12c0-0.88,0.21-1.53,0.62-1.96s1.04-0.64,1.89-0.64c0.17,0,0.34,0.01,0.51,0.02
				s0.31,0.03,0.42,0.04v1.24c-0.09-0.01-0.2-0.02-0.31-0.03s-0.23-0.01-0.35-0.01c-0.42,0-0.74,0.11-0.95,0.33
				s-0.32,0.56-0.32,1.01v1.12h1.88v1.27h-1.86v7.88h-1.53V224.33z"/>
			<path d="M255.51,231.78c-0.42-0.4-0.62-1.03-0.62-1.91v-5.55h-1.34v-1.27h1.34v-2.47h1.58v2.47h1.74v1.27h-1.74v5.54
				c0,0.49,0.11,0.82,0.32,0.99s0.52,0.26,0.93,0.26c0.09,0,0.18,0,0.27-0.01s0.16-0.02,0.22-0.02v1.24
				c-0.09,0.01-0.22,0.02-0.36,0.04s-0.3,0.02-0.45,0.02C256.55,232.38,255.93,232.18,255.51,231.78z"/>
			<path d="M259.92,219.52h1.53v5h0.04c0.25-0.52,0.61-0.92,1.1-1.2s1.07-0.43,1.75-0.43c0.65,0,1.22,0.16,1.71,0.47
				s0.87,0.75,1.15,1.3s0.41,1.21,0.41,1.94v5.6h-1.53v-5.33c0-0.83-0.2-1.47-0.6-1.93s-0.96-0.7-1.67-0.7
				c-0.47,0-0.88,0.11-1.23,0.33s-0.63,0.53-0.83,0.92s-0.29,0.85-0.29,1.37v5.33h-1.53V219.52z"/>
			<path d="M271.05,231.8c-0.63-0.39-1.11-0.93-1.45-1.64s-0.51-1.54-0.51-2.49v-0.01c0-0.94,0.17-1.77,0.51-2.49
				s0.82-1.28,1.43-1.68s1.34-0.6,2.17-0.6s1.55,0.19,2.15,0.58s1.06,0.92,1.38,1.61s0.48,1.49,0.48,2.41v0.56h-7.37v-1.2h6.61
				l-0.77,1.11v-0.59c0-0.71-0.11-1.29-0.32-1.76s-0.51-0.81-0.88-1.03s-0.81-0.34-1.29-0.34s-0.92,0.12-1.31,0.36
				s-0.69,0.59-0.91,1.05s-0.33,1.04-0.33,1.72v0.59c0,0.64,0.11,1.2,0.33,1.65s0.53,0.81,0.94,1.05s0.88,0.36,1.43,0.36
				c0.39,0,0.73-0.06,1.04-0.18s0.56-0.28,0.76-0.48s0.35-0.44,0.44-0.7l0.03-0.08h1.5l-0.02,0.09c-0.08,0.38-0.22,0.73-0.44,1.05
				s-0.49,0.62-0.82,0.87s-0.71,0.44-1.14,0.58s-0.89,0.21-1.39,0.21C272.43,232.38,271.68,232.19,271.05,231.8z"/>
			<path d="M145.87,244.67h1.53V246h0.04c0.21-0.45,0.53-0.82,0.97-1.09c0.44-0.28,0.95-0.42,1.54-0.42c0.42,0,0.79,0.07,1.13,0.21
				c0.34,0.14,0.63,0.34,0.87,0.6c0.25,0.26,0.43,0.58,0.56,0.95h0.04c0.17-0.37,0.4-0.68,0.68-0.94c0.28-0.26,0.61-0.46,0.98-0.6
				s0.77-0.21,1.2-0.21c0.6,0,1.13,0.12,1.57,0.37c0.45,0.25,0.79,0.6,1.04,1.04c0.25,0.45,0.37,0.98,0.37,1.59v6.31h-1.53v-5.96
				c0-0.63-0.17-1.12-0.5-1.47c-0.33-0.36-0.8-0.53-1.4-0.53c-0.4,0-0.76,0.09-1.07,0.28c-0.31,0.19-0.55,0.44-0.73,0.77
				c-0.18,0.32-0.26,0.7-0.26,1.11v5.81h-1.53v-6.13c0-0.56-0.17-1-0.51-1.34s-0.79-0.5-1.36-0.5c-0.4,0-0.76,0.1-1.08,0.29
				c-0.31,0.2-0.56,0.46-0.74,0.8s-0.27,0.71-0.27,1.14v5.73h-1.53V244.67z"/>
			<path d="M161.41,253.64c-0.46-0.23-0.81-0.55-1.07-0.97s-0.38-0.9-0.38-1.45v-0.02c0-0.78,0.29-1.4,0.87-1.87
				c0.58-0.46,1.39-0.73,2.44-0.79l3.38-0.19v1.19l-3.21,0.19c-0.61,0.04-1.08,0.18-1.42,0.44s-0.51,0.6-0.51,1.03v0.02
				c0,0.44,0.17,0.79,0.5,1.05s0.77,0.39,1.32,0.39c0.48,0,0.91-0.1,1.3-0.3c0.38-0.2,0.69-0.48,0.91-0.83s0.34-0.75,0.34-1.19v-2.7
				c0-0.56-0.17-1-0.52-1.31c-0.35-0.32-0.84-0.48-1.48-0.48c-0.59,0-1.06,0.13-1.42,0.38c-0.36,0.26-0.58,0.59-0.67,1l-0.02,0.08
				h-1.48l0.01-0.1c0.05-0.5,0.22-0.96,0.51-1.37s0.7-0.74,1.23-0.98c0.52-0.24,1.14-0.36,1.85-0.36c0.72,0,1.34,0.12,1.87,0.37
				s0.93,0.59,1.22,1.04c0.29,0.45,0.43,0.98,0.43,1.59v6.32h-1.53v-1.49h-0.04c-0.18,0.33-0.41,0.62-0.7,0.88
				c-0.29,0.25-0.62,0.44-0.99,0.58c-0.37,0.14-0.75,0.21-1.16,0.21C162.4,253.98,161.87,253.87,161.41,253.64z"/>
			<path d="M168,256.89c-0.05,0-0.1,0-0.15-0.01v-1.34c0.04,0,0.08,0,0.12,0s0.08,0,0.12,0c0.5,0,0.85-0.09,1.05-0.28
				s0.3-0.54,0.3-1.05v-9.54h1.53v9.53c0,0.93-0.23,1.61-0.68,2.04c-0.45,0.44-1.17,0.65-2.15,0.65
				C168.1,256.89,168.05,256.89,168,256.89z M169.53,242.84c-0.19-0.19-0.28-0.41-0.28-0.68c0-0.27,0.09-0.5,0.28-0.68
				c0.19-0.18,0.41-0.28,0.68-0.28c0.27,0,0.5,0.09,0.68,0.28c0.18,0.19,0.28,0.41,0.28,0.68c0,0.26-0.09,0.49-0.28,0.68
				s-0.41,0.28-0.68,0.28C169.95,243.12,169.72,243.02,169.53,242.84z"/>
			<path d="M174.63,253.4c-0.64-0.39-1.13-0.94-1.49-1.65c-0.35-0.71-0.53-1.55-0.53-2.52v-0.02c0-0.97,0.18-1.81,0.53-2.52
				c0.35-0.71,0.85-1.25,1.49-1.63c0.64-0.38,1.37-0.58,2.21-0.58c0.84,0,1.58,0.19,2.22,0.58c0.64,0.38,1.13,0.93,1.49,1.63
				c0.35,0.71,0.53,1.55,0.53,2.52v0.02c0,0.97-0.18,1.81-0.53,2.52s-0.85,1.26-1.48,1.64s-1.37,0.58-2.21,0.58
				S175.26,253.79,174.63,253.4z M178.26,252.23c0.4-0.27,0.7-0.65,0.92-1.16c0.22-0.51,0.33-1.12,0.33-1.83v-0.02
				c0-0.71-0.11-1.32-0.33-1.83s-0.53-0.89-0.93-1.15s-0.87-0.4-1.41-0.4c-0.53,0-0.99,0.13-1.39,0.4c-0.4,0.27-0.71,0.65-0.94,1.15
				c-0.22,0.5-0.33,1.11-0.33,1.82v0.02c0,0.71,0.11,1.33,0.33,1.83c0.22,0.51,0.53,0.89,0.94,1.16c0.4,0.27,0.87,0.4,1.41,0.4
				S177.86,252.49,178.26,252.23z"/>
			<path d="M182.61,244.67h1.53v1.55h0.04c0.15-0.53,0.42-0.95,0.79-1.26s0.82-0.47,1.34-0.47c0.13,0,0.26,0.01,0.36,0.02
				c0.11,0.01,0.19,0.03,0.25,0.04v1.49c-0.06-0.02-0.16-0.04-0.31-0.06s-0.32-0.03-0.51-0.03c-0.39,0-0.74,0.09-1.03,0.26
				s-0.52,0.43-0.69,0.76c-0.16,0.33-0.24,0.73-0.24,1.19v5.64h-1.53V244.67z"/>
			<path d="M191.85,244.67h1.53V246h0.04c0.21-0.45,0.53-0.82,0.97-1.09c0.44-0.28,0.95-0.42,1.54-0.42c0.42,0,0.79,0.07,1.13,0.21
				c0.34,0.14,0.63,0.34,0.87,0.6c0.25,0.26,0.43,0.58,0.56,0.95h0.04c0.17-0.37,0.4-0.68,0.68-0.94c0.28-0.26,0.61-0.46,0.98-0.6
				s0.77-0.21,1.2-0.21c0.6,0,1.13,0.12,1.57,0.37c0.45,0.25,0.79,0.6,1.04,1.04c0.25,0.45,0.37,0.98,0.37,1.59v6.31h-1.53v-5.96
				c0-0.63-0.17-1.12-0.5-1.47c-0.33-0.36-0.8-0.53-1.4-0.53c-0.4,0-0.76,0.09-1.07,0.28c-0.31,0.19-0.55,0.44-0.73,0.77
				c-0.18,0.32-0.26,0.7-0.26,1.11v5.81h-1.53v-6.13c0-0.56-0.17-1-0.51-1.34s-0.79-0.5-1.36-0.5c-0.4,0-0.76,0.1-1.08,0.29
				c-0.31,0.2-0.56,0.46-0.74,0.8s-0.27,0.71-0.27,1.14v5.73h-1.53V244.67z"/>
			<path d="M206.49,242.84c-0.19-0.19-0.28-0.41-0.28-0.68c0-0.27,0.09-0.5,0.28-0.68c0.19-0.18,0.41-0.28,0.68-0.28
				c0.27,0,0.5,0.09,0.68,0.28c0.18,0.19,0.28,0.41,0.28,0.68c0,0.26-0.09,0.49-0.28,0.68s-0.41,0.28-0.68,0.28
				C206.91,243.12,206.68,243.02,206.49,242.84z M206.4,244.67h1.53v9.14h-1.53V244.67z"/>
			<path d="M210.1,241.12h1.53v12.68h-1.53V241.12z"/>
			<path d="M215.2,253.4c-0.63-0.39-1.11-0.93-1.45-1.64c-0.34-0.71-0.51-1.54-0.51-2.49v-0.01c0-0.94,0.17-1.77,0.51-2.49
				c0.34-0.72,0.82-1.28,1.43-1.68c0.62-0.4,1.34-0.6,2.17-0.6s1.55,0.19,2.15,0.58c0.6,0.38,1.06,0.92,1.38,1.61
				s0.48,1.49,0.48,2.41v0.56h-7.37v-1.2h6.61l-0.77,1.11v-0.59c0-0.71-0.11-1.29-0.32-1.76s-0.51-0.81-0.88-1.03
				c-0.38-0.23-0.81-0.34-1.29-0.34s-0.92,0.12-1.31,0.36c-0.39,0.24-0.69,0.59-0.91,1.05c-0.22,0.46-0.33,1.04-0.33,1.72v0.59
				c0,0.64,0.11,1.2,0.33,1.65s0.53,0.81,0.94,1.05c0.4,0.24,0.88,0.36,1.43,0.36c0.39,0,0.73-0.06,1.04-0.18s0.56-0.28,0.76-0.48
				s0.35-0.44,0.44-0.7l0.03-0.08h1.5l-0.02,0.09c-0.08,0.38-0.22,0.73-0.44,1.05s-0.49,0.62-0.82,0.87
				c-0.33,0.25-0.71,0.44-1.14,0.58c-0.43,0.14-0.89,0.21-1.39,0.21C216.58,253.98,215.83,253.79,215.2,253.4z"/>
			<path d="M224.3,253.64c-0.52-0.23-0.93-0.55-1.23-0.96s-0.48-0.89-0.55-1.43l-0.01-0.08h1.53l0.02,0.09
				c0.09,0.46,0.31,0.81,0.66,1.07c0.35,0.26,0.83,0.38,1.45,0.38c0.42,0,0.77-0.05,1.06-0.16c0.29-0.11,0.52-0.26,0.68-0.47
				c0.16-0.2,0.24-0.44,0.24-0.72v-0.01c0-0.33-0.1-0.59-0.3-0.79s-0.56-0.36-1.08-0.49l-1.45-0.35c-0.86-0.21-1.5-0.51-1.92-0.93
				c-0.42-0.41-0.63-0.95-0.63-1.6v-0.01c0-0.53,0.14-0.99,0.43-1.4s0.68-0.72,1.19-0.95s1.09-0.34,1.74-0.34
				c0.67,0,1.25,0.12,1.74,0.36c0.5,0.24,0.88,0.56,1.17,0.97c0.28,0.41,0.44,0.87,0.48,1.38l0.01,0.11h-1.46l-0.01-0.06
				c-0.06-0.45-0.25-0.8-0.58-1.07s-0.78-0.4-1.35-0.4c-0.37,0-0.69,0.06-0.96,0.17s-0.48,0.27-0.62,0.47
				c-0.14,0.2-0.22,0.44-0.22,0.71v0.01c0,0.31,0.11,0.57,0.33,0.79s0.59,0.39,1.09,0.51l1.45,0.35c0.93,0.22,1.58,0.53,1.95,0.92
				c0.38,0.39,0.56,0.91,0.56,1.56v0.01c0,0.53-0.15,1-0.46,1.42s-0.73,0.73-1.27,0.96c-0.54,0.23-1.14,0.35-1.82,0.35
				C225.44,253.98,224.82,253.87,224.3,253.64z"/>
			<path d="M232.38,253.38c-0.42-0.4-0.62-1.03-0.62-1.91v-5.55h-1.34v-1.27h1.34v-2.47h1.58v2.47h1.74v1.27h-1.74v5.54
				c0,0.49,0.11,0.82,0.32,0.99c0.21,0.17,0.52,0.26,0.93,0.26c0.09,0,0.18,0,0.27-0.01c0.08-0.01,0.16-0.02,0.22-0.02v1.24
				c-0.09,0.01-0.22,0.03-0.36,0.04c-0.15,0.02-0.3,0.02-0.45,0.02C233.42,253.98,232.79,253.78,232.38,253.38z"/>
			<path d="M238.28,253.4c-0.64-0.39-1.13-0.94-1.49-1.65c-0.35-0.71-0.53-1.55-0.53-2.52v-0.02c0-0.97,0.18-1.81,0.53-2.52
				c0.35-0.71,0.85-1.25,1.49-1.63c0.64-0.38,1.37-0.58,2.21-0.58c0.84,0,1.58,0.19,2.22,0.58c0.64,0.38,1.13,0.93,1.49,1.63
				c0.35,0.71,0.53,1.55,0.53,2.52v0.02c0,0.97-0.18,1.81-0.53,2.52s-0.85,1.26-1.48,1.64s-1.37,0.58-2.21,0.58
				S238.91,253.79,238.28,253.4z M241.91,252.23c0.4-0.27,0.7-0.65,0.92-1.16c0.22-0.51,0.33-1.12,0.33-1.83v-0.02
				c0-0.71-0.11-1.32-0.33-1.83s-0.53-0.89-0.93-1.15s-0.87-0.4-1.41-0.4c-0.53,0-0.99,0.13-1.39,0.4c-0.4,0.27-0.71,0.65-0.94,1.15
				c-0.22,0.5-0.33,1.11-0.33,1.82v0.02c0,0.71,0.11,1.33,0.33,1.83c0.22,0.51,0.53,0.89,0.94,1.16c0.4,0.27,0.87,0.4,1.41,0.4
				S241.51,252.49,241.91,252.23z"/>
			<path d="M246.26,244.67h1.53v1.3h0.04c0.25-0.43,0.6-0.78,1.07-1.06c0.47-0.28,1.05-0.42,1.74-0.42c1,0,1.78,0.3,2.33,0.91
				c0.55,0.61,0.83,1.43,0.83,2.47v5.93h-1.53v-5.66c0-0.74-0.17-1.31-0.52-1.71c-0.35-0.39-0.87-0.59-1.58-0.59
				c-0.48,0-0.9,0.11-1.26,0.32c-0.36,0.21-0.63,0.51-0.83,0.9s-0.29,0.84-0.29,1.36v5.38h-1.53V244.67z"/>
			<path d="M257.25,253.4c-0.63-0.39-1.11-0.93-1.45-1.64c-0.34-0.71-0.51-1.54-0.51-2.49v-0.01c0-0.94,0.17-1.77,0.51-2.49
				c0.34-0.72,0.82-1.28,1.43-1.68c0.62-0.4,1.34-0.6,2.17-0.6s1.55,0.19,2.15,0.58c0.6,0.38,1.06,0.92,1.38,1.61
				s0.48,1.49,0.48,2.41v0.56h-7.37v-1.2h6.61l-0.77,1.11v-0.59c0-0.71-0.11-1.29-0.32-1.76s-0.51-0.81-0.88-1.03
				c-0.38-0.23-0.81-0.34-1.29-0.34s-0.92,0.12-1.31,0.36c-0.39,0.24-0.69,0.59-0.91,1.05c-0.22,0.46-0.33,1.04-0.33,1.72v0.59
				c0,0.64,0.11,1.2,0.33,1.65s0.53,0.81,0.94,1.05c0.4,0.24,0.88,0.36,1.43,0.36c0.39,0,0.73-0.06,1.04-0.18s0.56-0.28,0.76-0.48
				s0.35-0.44,0.44-0.7l0.03-0.08h1.5l-0.02,0.09c-0.08,0.38-0.22,0.73-0.44,1.05s-0.49,0.62-0.82,0.87
				c-0.33,0.25-0.71,0.44-1.14,0.58c-0.43,0.14-0.89,0.21-1.39,0.21C258.64,253.98,257.88,253.79,257.25,253.4z"/>
		</g>
	</g>
	<line class="st7" x1="136.36" y1="303.97" x2="136.36" y2="219.52"/>
	<line class="st7" x1="58.61" y1="303.97" x2="58.61" y2="144.74"/>
	<g>
		<g>
			<path d="M430.28,144.74h4.26c1.25,0,2.33,0.25,3.22,0.75s1.57,1.22,2.05,2.16s0.72,2.08,0.72,3.41v0.02
				c0,1.33-0.24,2.47-0.71,3.42s-1.16,1.67-2.05,2.18s-1.97,0.75-3.23,0.75h-4.26V144.74z M434.44,156c0.96,0,1.77-0.19,2.44-0.57
				s1.17-0.94,1.52-1.67s0.52-1.62,0.52-2.67v-0.02c0-1.05-0.17-1.95-0.52-2.68s-0.85-1.29-1.52-1.67s-1.48-0.57-2.44-0.57h-2.58
				V156H434.44z"/>
			<path d="M443.77,157.02c-0.63-0.39-1.11-0.93-1.45-1.64s-0.51-1.54-0.51-2.49v-0.01c0-0.94,0.17-1.77,0.51-2.49
				s0.82-1.28,1.43-1.68s1.34-0.6,2.17-0.6s1.55,0.19,2.15,0.58s1.06,0.92,1.38,1.61s0.48,1.49,0.48,2.41v0.56h-7.37v-1.2h6.61
				l-0.77,1.11v-0.59c0-0.71-0.11-1.29-0.32-1.76s-0.51-0.81-0.88-1.03s-0.81-0.34-1.29-0.34s-0.92,0.12-1.31,0.36
				s-0.69,0.59-0.91,1.05s-0.33,1.04-0.33,1.72v0.59c0,0.64,0.11,1.2,0.33,1.65s0.53,0.81,0.94,1.05s0.88,0.36,1.43,0.36
				c0.39,0,0.73-0.06,1.04-0.18s0.56-0.28,0.76-0.48s0.35-0.44,0.44-0.7l0.03-0.08h1.5l-0.02,0.09c-0.08,0.38-0.22,0.73-0.44,1.05
				s-0.49,0.62-0.82,0.87s-0.71,0.44-1.14,0.58s-0.89,0.21-1.39,0.21C445.15,157.6,444.4,157.4,443.77,157.02z"/>
			<path d="M452.87,157.25c-0.52-0.23-0.93-0.55-1.23-0.96s-0.48-0.89-0.55-1.43l-0.01-0.08h1.53l0.02,0.09
				c0.09,0.46,0.31,0.81,0.66,1.07s0.83,0.38,1.45,0.38c0.42,0,0.77-0.05,1.06-0.16s0.52-0.26,0.68-0.47s0.24-0.44,0.24-0.72v-0.01
				c0-0.33-0.1-0.59-0.3-0.79s-0.56-0.36-1.08-0.49l-1.45-0.35c-0.86-0.21-1.5-0.51-1.92-0.93s-0.63-0.95-0.63-1.6v-0.01
				c0-0.53,0.14-0.99,0.43-1.4s0.68-0.72,1.19-0.95s1.09-0.34,1.74-0.34c0.67,0,1.25,0.12,1.74,0.36s0.88,0.56,1.17,0.97
				s0.44,0.87,0.48,1.38l0.01,0.11h-1.46l-0.01-0.06c-0.06-0.45-0.25-0.8-0.58-1.07s-0.78-0.4-1.35-0.4c-0.37,0-0.69,0.06-0.96,0.17
				s-0.48,0.27-0.62,0.47s-0.22,0.44-0.22,0.71v0.01c0,0.31,0.11,0.57,0.33,0.79s0.59,0.39,1.09,0.51l1.45,0.35
				c0.93,0.22,1.58,0.53,1.95,0.92s0.56,0.91,0.56,1.56v0.01c0,0.53-0.15,1-0.46,1.42s-0.73,0.73-1.27,0.96s-1.14,0.35-1.82,0.35
				C454.01,157.6,453.39,157.48,452.87,157.25z"/>
			<path d="M461.4,157.01c-0.64-0.39-1.13-0.94-1.47-1.65s-0.52-1.55-0.52-2.52v-0.01c0-0.96,0.18-1.8,0.53-2.5s0.84-1.26,1.48-1.64
				s1.37-0.58,2.21-0.58c0.76,0,1.42,0.15,1.96,0.44s0.97,0.68,1.29,1.15s0.5,0.96,0.57,1.49l0.01,0.07h-1.49l-0.02-0.07
				c-0.11-0.46-0.36-0.86-0.73-1.2s-0.9-0.52-1.58-0.52c-0.53,0-0.99,0.14-1.39,0.42s-0.71,0.67-0.93,1.18s-0.33,1.11-0.33,1.8v0.01
				c0,0.71,0.11,1.32,0.34,1.82s0.54,0.89,0.94,1.16s0.87,0.4,1.39,0.4c0.63,0,1.14-0.16,1.52-0.48s0.65-0.73,0.78-1.24l0.02-0.07
				h1.5l-0.01,0.06c-0.08,0.58-0.29,1.1-0.64,1.57s-0.79,0.83-1.33,1.11s-1.16,0.41-1.85,0.41
				C462.78,157.6,462.03,157.4,461.4,157.01z"/>
			<path d="M468.87,148.28h1.53v1.55h0.04c0.15-0.53,0.42-0.95,0.79-1.26s0.82-0.47,1.34-0.47c0.13,0,0.26,0.01,0.36,0.02
				s0.19,0.03,0.25,0.04v1.49c-0.06-0.02-0.16-0.04-0.31-0.06s-0.32-0.03-0.5-0.03c-0.39,0-0.74,0.09-1.03,0.26
				s-0.52,0.43-0.69,0.76s-0.24,0.73-0.24,1.19v5.64h-1.53V148.28z"/>
			<path d="M474.6,146.45c-0.19-0.19-0.28-0.41-0.28-0.68c0-0.27,0.09-0.5,0.28-0.68s0.41-0.28,0.68-0.28c0.27,0,0.5,0.09,0.68,0.28
				s0.28,0.41,0.28,0.68c0,0.26-0.09,0.49-0.28,0.68s-0.41,0.28-0.68,0.28C475.01,146.73,474.79,146.64,474.6,146.45z
				 M474.51,148.28h1.53v9.14h-1.53V148.28z"/>
			<path d="M478.13,148.28h1.53v1.55h0.04c0.19-0.36,0.43-0.66,0.72-0.92s0.61-0.45,0.98-0.59s0.77-0.21,1.2-0.21
				c0.78,0,1.46,0.19,2.04,0.58s1.04,0.94,1.36,1.65s0.48,1.55,0.48,2.51v0.01c0,0.96-0.16,1.8-0.49,2.5s-0.78,1.26-1.35,1.65
				s-1.25,0.58-2.02,0.58c-0.43,0-0.83-0.07-1.2-0.21s-0.71-0.33-1-0.59s-0.53-0.56-0.72-0.91h-0.04v4.61h-1.53V148.28z
				 M483.69,155.83c0.39-0.28,0.69-0.67,0.91-1.17s0.32-1.11,0.32-1.8v-0.01c0-0.7-0.11-1.31-0.32-1.81s-0.51-0.9-0.91-1.17
				s-0.86-0.41-1.4-0.41c-0.52,0-0.97,0.14-1.37,0.42s-0.71,0.68-0.94,1.18s-0.34,1.1-0.34,1.79v0.01c0,0.68,0.11,1.27,0.34,1.78
				s0.54,0.9,0.94,1.18s0.85,0.42,1.37,0.42C482.83,156.24,483.3,156.1,483.69,155.83z"/>
			<path d="M489.1,157c-0.42-0.4-0.62-1.03-0.62-1.91v-5.55h-1.34v-1.27h1.34v-2.47h1.58v2.47h1.74v1.27h-1.74v5.54
				c0,0.49,0.11,0.82,0.32,0.99s0.52,0.26,0.93,0.26c0.09,0,0.18,0,0.27-0.01s0.16-0.02,0.22-0.02v1.24
				c-0.09,0.01-0.22,0.02-0.37,0.04s-0.3,0.02-0.45,0.02C490.15,157.6,489.52,157.4,489.1,157z"/>
			<path d="M493.62,146.45c-0.19-0.19-0.28-0.41-0.28-0.68c0-0.27,0.09-0.5,0.28-0.68s0.41-0.28,0.68-0.28
				c0.27,0,0.5,0.09,0.68,0.28s0.28,0.41,0.28,0.68c0,0.26-0.09,0.49-0.28,0.68s-0.41,0.28-0.68,0.28
				C494.03,146.73,493.81,146.64,493.62,146.45z M493.53,148.28h1.53v9.14h-1.53V148.28z"/>
			<path d="M498.71,157.02c-0.64-0.39-1.13-0.94-1.49-1.65s-0.53-1.55-0.53-2.52v-0.02c0-0.97,0.18-1.81,0.53-2.52
				s0.85-1.25,1.49-1.63s1.37-0.58,2.21-0.58c0.84,0,1.58,0.19,2.22,0.58s1.13,0.93,1.49,1.63s0.53,1.55,0.53,2.52v0.02
				c0,0.97-0.18,1.81-0.53,2.52s-0.85,1.26-1.48,1.64s-1.37,0.58-2.21,0.58S499.35,157.4,498.71,157.02z M502.34,155.84
				c0.4-0.27,0.7-0.65,0.92-1.16s0.33-1.12,0.33-1.83v-0.02c0-0.71-0.11-1.32-0.33-1.83s-0.53-0.89-0.93-1.15s-0.87-0.4-1.41-0.4
				c-0.53,0-0.99,0.13-1.39,0.4s-0.71,0.65-0.94,1.15s-0.33,1.11-0.33,1.82v0.02c0,0.71,0.11,1.33,0.33,1.83s0.53,0.89,0.94,1.16
				s0.87,0.4,1.41,0.4S501.95,156.11,502.34,155.84z"/>
			<path d="M506.7,148.28h1.53v1.3h0.04c0.25-0.43,0.6-0.78,1.07-1.06s1.05-0.42,1.74-0.42c1,0,1.78,0.3,2.33,0.91
				s0.83,1.43,0.83,2.47v5.93h-1.53v-5.66c0-0.74-0.17-1.31-0.52-1.71s-0.87-0.59-1.58-0.59c-0.48,0-0.9,0.11-1.26,0.32
				s-0.63,0.51-0.83,0.9s-0.29,0.84-0.29,1.36v5.38h-1.53V148.28z"/>
			<path d="M521.44,157.02c-0.64-0.39-1.13-0.94-1.49-1.65s-0.53-1.55-0.53-2.52v-0.02c0-0.97,0.18-1.81,0.53-2.52
				s0.85-1.25,1.49-1.63s1.37-0.58,2.21-0.58c0.84,0,1.58,0.19,2.22,0.58s1.13,0.93,1.49,1.63s0.53,1.55,0.53,2.52v0.02
				c0,0.97-0.18,1.81-0.53,2.52s-0.85,1.26-1.48,1.64s-1.37,0.58-2.21,0.58S522.08,157.4,521.44,157.02z M525.07,155.84
				c0.4-0.27,0.7-0.65,0.92-1.16s0.33-1.12,0.33-1.83v-0.02c0-0.71-0.11-1.32-0.33-1.83s-0.53-0.89-0.93-1.15s-0.87-0.4-1.41-0.4
				c-0.53,0-0.99,0.13-1.39,0.4s-0.71,0.65-0.94,1.15s-0.33,1.11-0.33,1.82v0.02c0,0.71,0.11,1.33,0.33,1.83s0.53,0.89,0.94,1.16
				s0.87,0.4,1.41,0.4S524.68,156.11,525.07,155.84z"/>
			<path d="M529.92,149.54h-1.27v-1.27h1.27v-1.12c0-0.88,0.21-1.53,0.62-1.96s1.04-0.64,1.89-0.64c0.17,0,0.34,0.01,0.51,0.02
				s0.31,0.03,0.42,0.04v1.24c-0.09-0.01-0.2-0.02-0.31-0.03s-0.23-0.01-0.35-0.01c-0.42,0-0.74,0.11-0.95,0.33
				s-0.32,0.56-0.32,1.01v1.12h1.88v1.27h-1.86v7.88h-1.53V149.54z"/>
			<path d="M539.68,157c-0.42-0.4-0.62-1.03-0.62-1.91v-5.55h-1.34v-1.27h1.34v-2.47h1.58v2.47h1.74v1.27h-1.74v5.54
				c0,0.49,0.11,0.82,0.32,0.99s0.52,0.26,0.93,0.26c0.09,0,0.18,0,0.27-0.01s0.16-0.02,0.22-0.02v1.24
				c-0.09,0.01-0.22,0.02-0.37,0.04s-0.3,0.02-0.45,0.02C540.72,157.6,540.09,157.4,539.68,157z"/>
			<path d="M544.09,144.74h1.53v5h0.04c0.25-0.52,0.61-0.92,1.1-1.2s1.07-0.43,1.75-0.43c0.65,0,1.22,0.16,1.71,0.47
				s0.87,0.75,1.15,1.31s0.41,1.2,0.41,1.94v5.6h-1.53v-5.33c0-0.83-0.2-1.47-0.6-1.93s-0.96-0.69-1.67-0.69
				c-0.47,0-0.88,0.11-1.24,0.33s-0.63,0.53-0.83,0.92s-0.29,0.85-0.29,1.37v5.33h-1.53V144.74z"/>
			<path d="M555.22,157.02c-0.63-0.39-1.11-0.93-1.45-1.64s-0.5-1.54-0.5-2.49v-0.01c0-0.94,0.17-1.77,0.51-2.49
				s0.82-1.28,1.43-1.68s1.34-0.6,2.17-0.6s1.55,0.19,2.15,0.58s1.06,0.92,1.38,1.61s0.48,1.49,0.48,2.41v0.56h-7.37v-1.2h6.61
				l-0.77,1.11v-0.59c0-0.71-0.11-1.29-0.32-1.76s-0.51-0.81-0.88-1.03s-0.81-0.34-1.29-0.34s-0.92,0.12-1.31,0.36
				s-0.69,0.59-0.91,1.05s-0.33,1.04-0.33,1.72v0.59c0,0.64,0.11,1.2,0.33,1.65s0.53,0.81,0.94,1.05s0.88,0.36,1.43,0.36
				c0.39,0,0.73-0.06,1.04-0.18s0.56-0.28,0.76-0.48s0.35-0.44,0.44-0.7l0.03-0.08h1.5l-0.02,0.09c-0.08,0.38-0.22,0.73-0.44,1.05
				s-0.49,0.62-0.82,0.87s-0.71,0.44-1.14,0.58s-0.89,0.21-1.39,0.21C556.6,157.6,555.85,157.4,555.22,157.02z"/>
			<path d="M430.04,169.88h1.53v1.34h0.04c0.21-0.45,0.53-0.82,0.97-1.09s0.95-0.42,1.54-0.42c0.42,0,0.79,0.07,1.13,0.21
				s0.63,0.34,0.87,0.6s0.43,0.58,0.56,0.95h0.04c0.17-0.37,0.4-0.68,0.68-0.94s0.61-0.46,0.98-0.6s0.77-0.21,1.2-0.21
				c0.6,0,1.13,0.12,1.57,0.37s0.79,0.6,1.04,1.05s0.37,0.98,0.37,1.59v6.31h-1.53v-5.96c0-0.63-0.17-1.12-0.5-1.47
				s-0.8-0.53-1.4-0.53c-0.4,0-0.76,0.09-1.07,0.28s-0.55,0.44-0.73,0.76s-0.26,0.7-0.26,1.11v5.81h-1.53v-6.13
				c0-0.56-0.17-1-0.51-1.34s-0.79-0.5-1.36-0.5c-0.4,0-0.76,0.1-1.08,0.29s-0.56,0.46-0.74,0.8s-0.27,0.71-0.27,1.14v5.73h-1.53
				V169.88z"/>
			<path d="M445.58,178.85c-0.46-0.23-0.81-0.55-1.07-0.97s-0.38-0.9-0.38-1.45v-0.02c0-0.78,0.29-1.4,0.87-1.87
				s1.39-0.73,2.44-0.79l3.38-0.19v1.19l-3.21,0.19c-0.61,0.04-1.08,0.18-1.42,0.44s-0.51,0.6-0.51,1.03v0.02
				c0,0.44,0.17,0.79,0.5,1.05s0.77,0.39,1.32,0.39c0.48,0,0.91-0.1,1.3-0.3s0.69-0.48,0.91-0.83s0.34-0.75,0.34-1.19v-2.7
				c0-0.56-0.17-0.99-0.52-1.31s-0.84-0.48-1.48-0.48c-0.59,0-1.06,0.13-1.42,0.38s-0.58,0.59-0.67,1l-0.02,0.08h-1.48l0.01-0.1
				c0.05-0.5,0.22-0.96,0.51-1.37s0.7-0.74,1.23-0.98s1.14-0.36,1.85-0.36c0.72,0,1.34,0.12,1.87,0.37s0.93,0.59,1.22,1.04
				s0.43,0.98,0.43,1.59v6.32h-1.53v-1.49h-0.04c-0.18,0.33-0.41,0.63-0.7,0.87s-0.62,0.44-0.99,0.58s-0.75,0.21-1.16,0.21
				C446.57,179.2,446.04,179.08,445.58,178.85z"/>
			<path d="M452.17,182.1c-0.05,0-0.1,0-0.15-0.01v-1.34c0.04,0,0.08,0,0.12,0s0.08,0,0.12,0c0.5,0,0.85-0.09,1.05-0.28
				s0.3-0.54,0.3-1.05v-9.54h1.53v9.53c0,0.93-0.23,1.61-0.68,2.04s-1.17,0.65-2.15,0.65C452.27,182.1,452.22,182.1,452.17,182.1z
				 M453.7,168.05c-0.19-0.19-0.28-0.41-0.28-0.68c0-0.27,0.09-0.5,0.28-0.68s0.41-0.28,0.68-0.28c0.27,0,0.5,0.09,0.68,0.28
				s0.28,0.41,0.28,0.68c0,0.26-0.09,0.49-0.28,0.68s-0.41,0.28-0.68,0.28C454.11,168.33,453.89,168.24,453.7,168.05z"/>
			<path d="M458.79,178.62c-0.64-0.39-1.13-0.94-1.49-1.65s-0.53-1.55-0.53-2.52v-0.02c0-0.97,0.18-1.81,0.53-2.52
				s0.85-1.25,1.49-1.63s1.37-0.58,2.21-0.58c0.84,0,1.58,0.19,2.22,0.58s1.13,0.93,1.49,1.63s0.53,1.55,0.53,2.52v0.02
				c0,0.97-0.18,1.81-0.53,2.52s-0.85,1.26-1.48,1.64s-1.37,0.58-2.21,0.58S459.43,179,458.79,178.62z M462.42,177.44
				c0.4-0.27,0.7-0.65,0.92-1.16s0.33-1.12,0.33-1.83v-0.02c0-0.71-0.11-1.32-0.33-1.83s-0.53-0.89-0.93-1.15s-0.87-0.4-1.41-0.4
				c-0.53,0-0.99,0.13-1.39,0.4s-0.71,0.65-0.94,1.15s-0.33,1.11-0.33,1.82v0.02c0,0.71,0.11,1.33,0.33,1.83s0.53,0.89,0.94,1.16
				s0.87,0.4,1.41,0.4S462.03,177.71,462.42,177.44z"/>
			<path d="M466.78,169.88h1.53v1.55h0.04c0.15-0.53,0.42-0.95,0.79-1.26s0.82-0.47,1.34-0.47c0.13,0,0.26,0.01,0.36,0.02
				s0.19,0.03,0.25,0.04v1.49c-0.06-0.02-0.16-0.04-0.31-0.06s-0.32-0.03-0.51-0.03c-0.39,0-0.74,0.09-1.03,0.26
				s-0.52,0.43-0.69,0.76s-0.24,0.73-0.24,1.19v5.64h-1.53V169.88z"/>
			<path d="M476.02,169.88h1.53v1.34h0.04c0.21-0.45,0.53-0.82,0.97-1.09s0.95-0.42,1.54-0.42c0.42,0,0.79,0.07,1.13,0.21
				s0.63,0.34,0.88,0.6s0.43,0.58,0.56,0.95h0.04c0.17-0.37,0.4-0.68,0.68-0.94s0.61-0.46,0.98-0.6s0.77-0.21,1.2-0.21
				c0.6,0,1.13,0.12,1.57,0.37s0.79,0.6,1.04,1.05s0.37,0.98,0.37,1.59v6.31H487v-5.96c0-0.63-0.17-1.12-0.5-1.47
				s-0.8-0.53-1.4-0.53c-0.4,0-0.76,0.09-1.07,0.28s-0.55,0.44-0.73,0.76s-0.26,0.7-0.26,1.11v5.81h-1.53v-6.13
				c0-0.56-0.17-1-0.51-1.34s-0.79-0.5-1.36-0.5c-0.4,0-0.76,0.1-1.08,0.29s-0.56,0.46-0.74,0.8s-0.27,0.71-0.27,1.14v5.73h-1.53
				V169.88z"/>
			<path d="M490.66,168.05c-0.19-0.19-0.28-0.41-0.28-0.68c0-0.27,0.09-0.5,0.28-0.68s0.41-0.28,0.68-0.28
				c0.27,0,0.5,0.09,0.68,0.28s0.28,0.41,0.28,0.68c0,0.26-0.09,0.49-0.28,0.68s-0.41,0.28-0.68,0.28
				C491.07,168.33,490.85,168.24,490.66,168.05z M490.57,169.88h1.53v9.14h-1.53V169.88z"/>
			<path d="M494.26,166.34h1.53v12.68h-1.53V166.34z"/>
			<path d="M499.36,178.62c-0.63-0.39-1.11-0.93-1.45-1.64s-0.5-1.54-0.5-2.49v-0.01c0-0.94,0.17-1.77,0.51-2.49
				s0.82-1.28,1.43-1.68s1.34-0.6,2.17-0.6s1.55,0.19,2.15,0.58s1.06,0.92,1.38,1.61s0.48,1.49,0.48,2.41v0.56h-7.37v-1.2h6.61
				l-0.77,1.11v-0.59c0-0.71-0.11-1.29-0.32-1.76s-0.51-0.81-0.88-1.03s-0.81-0.34-1.29-0.34s-0.92,0.12-1.31,0.36
				s-0.69,0.59-0.91,1.05s-0.33,1.04-0.33,1.72v0.59c0,0.64,0.11,1.2,0.33,1.65s0.53,0.81,0.94,1.05s0.88,0.36,1.43,0.36
				c0.39,0,0.73-0.06,1.04-0.18s0.56-0.28,0.76-0.48s0.35-0.44,0.44-0.7l0.03-0.08h1.5l-0.02,0.09c-0.08,0.38-0.22,0.73-0.44,1.05
				s-0.49,0.62-0.82,0.87s-0.71,0.44-1.14,0.58s-0.89,0.21-1.39,0.21C500.75,179.2,499.99,179,499.36,178.62z"/>
			<path d="M508.47,178.85c-0.52-0.23-0.93-0.55-1.24-0.96s-0.48-0.89-0.55-1.43l-0.01-0.08h1.53l0.02,0.09
				c0.09,0.46,0.31,0.81,0.66,1.07s0.83,0.38,1.45,0.38c0.42,0,0.77-0.05,1.06-0.16s0.52-0.26,0.68-0.47s0.24-0.44,0.24-0.72v-0.01
				c0-0.33-0.1-0.59-0.3-0.79s-0.56-0.36-1.08-0.49l-1.45-0.35c-0.86-0.21-1.5-0.51-1.92-0.93s-0.63-0.95-0.63-1.6v-0.01
				c0-0.53,0.14-0.99,0.43-1.4s0.68-0.72,1.19-0.95s1.09-0.34,1.75-0.34c0.67,0,1.25,0.12,1.74,0.36s0.88,0.56,1.17,0.97
				s0.44,0.87,0.48,1.38l0.01,0.11h-1.46l-0.01-0.06c-0.06-0.45-0.25-0.8-0.58-1.07s-0.78-0.4-1.35-0.4c-0.37,0-0.69,0.06-0.96,0.17
				s-0.48,0.27-0.62,0.47s-0.21,0.44-0.21,0.71v0.01c0,0.31,0.11,0.57,0.33,0.79s0.59,0.39,1.09,0.51l1.45,0.35
				c0.93,0.22,1.58,0.53,1.95,0.92s0.56,0.91,0.56,1.56v0.01c0,0.53-0.15,1-0.46,1.42s-0.73,0.73-1.27,0.96s-1.14,0.35-1.82,0.35
				C509.61,179.2,508.99,179.08,508.47,178.85z"/>
			<path d="M516.54,178.6c-0.42-0.4-0.62-1.03-0.62-1.91v-5.55h-1.34v-1.27h1.34v-2.47h1.58v2.47h1.74v1.27h-1.74v5.54
				c0,0.49,0.11,0.82,0.32,0.99s0.52,0.26,0.93,0.26c0.09,0,0.18,0,0.27-0.01s0.16-0.02,0.22-0.02v1.24
				c-0.09,0.01-0.22,0.02-0.37,0.04s-0.3,0.02-0.45,0.02C517.59,179.2,516.96,179,516.54,178.6z"/>
			<path d="M522.44,178.62c-0.64-0.39-1.13-0.94-1.49-1.65s-0.53-1.55-0.53-2.52v-0.02c0-0.97,0.18-1.81,0.53-2.52
				s0.85-1.25,1.49-1.63s1.37-0.58,2.21-0.58c0.84,0,1.58,0.19,2.22,0.58s1.13,0.93,1.49,1.63s0.53,1.55,0.53,2.52v0.02
				c0,0.97-0.18,1.81-0.53,2.52s-0.85,1.26-1.48,1.64s-1.37,0.58-2.21,0.58S523.08,179,522.44,178.62z M526.07,177.44
				c0.4-0.27,0.7-0.65,0.92-1.16s0.33-1.12,0.33-1.83v-0.02c0-0.71-0.11-1.32-0.33-1.83s-0.53-0.89-0.93-1.15s-0.87-0.4-1.41-0.4
				c-0.53,0-0.99,0.13-1.39,0.4s-0.71,0.65-0.94,1.15s-0.33,1.11-0.33,1.82v0.02c0,0.71,0.11,1.33,0.33,1.83s0.53,0.89,0.94,1.16
				s0.87,0.4,1.41,0.4S525.68,177.71,526.07,177.44z"/>
			<path d="M530.43,169.88h1.53v1.3h0.04c0.25-0.43,0.6-0.78,1.07-1.06s1.05-0.42,1.74-0.42c1,0,1.78,0.3,2.33,0.91
				s0.83,1.43,0.83,2.47v5.93h-1.53v-5.66c0-0.74-0.17-1.31-0.52-1.71s-0.87-0.59-1.58-0.59c-0.48,0-0.9,0.11-1.26,0.32
				s-0.63,0.51-0.83,0.9s-0.29,0.84-0.29,1.36v5.38h-1.53V169.88z"/>
			<path d="M541.42,178.62c-0.63-0.39-1.11-0.93-1.45-1.64s-0.5-1.54-0.5-2.49v-0.01c0-0.94,0.17-1.77,0.51-2.49
				s0.82-1.28,1.43-1.68s1.34-0.6,2.17-0.6s1.55,0.19,2.15,0.58s1.06,0.92,1.38,1.61s0.48,1.49,0.48,2.41v0.56h-7.37v-1.2h6.61
				l-0.77,1.11v-0.59c0-0.71-0.11-1.29-0.32-1.76s-0.51-0.81-0.88-1.03s-0.81-0.34-1.29-0.34s-0.92,0.12-1.31,0.36
				s-0.69,0.59-0.91,1.05s-0.33,1.04-0.33,1.72v0.59c0,0.64,0.11,1.2,0.33,1.65s0.53,0.81,0.94,1.05s0.88,0.36,1.43,0.36
				c0.39,0,0.73-0.06,1.04-0.18s0.56-0.28,0.76-0.48s0.35-0.44,0.44-0.7l0.03-0.08h1.5l-0.02,0.09c-0.08,0.38-0.22,0.73-0.44,1.05
				s-0.49,0.62-0.82,0.87s-0.71,0.44-1.14,0.58s-0.89,0.21-1.39,0.21C542.8,179.2,542.05,179,541.42,178.62z"/>
		</g>
	</g>
	<g>
		<g>
			<path d="M508.02,219.52h4.26c1.25,0,2.33,0.25,3.22,0.75s1.58,1.22,2.05,2.16s0.72,2.08,0.72,3.41v0.02
				c0,1.33-0.24,2.47-0.71,3.42s-1.16,1.67-2.05,2.17s-1.97,0.75-3.23,0.75h-4.26V219.52z M512.18,230.78
				c0.96,0,1.77-0.19,2.44-0.57s1.17-0.94,1.52-1.67s0.52-1.62,0.52-2.67v-0.02c0-1.05-0.17-1.95-0.52-2.68s-0.85-1.29-1.52-1.67
				s-1.48-0.57-2.44-0.57h-2.58v9.83H512.18z"/>
			<path d="M521.51,231.8c-0.63-0.39-1.11-0.93-1.45-1.64s-0.51-1.54-0.51-2.49v-0.01c0-0.94,0.17-1.77,0.51-2.49
				s0.82-1.28,1.43-1.68s1.34-0.6,2.17-0.6s1.55,0.19,2.15,0.58s1.06,0.92,1.38,1.61s0.48,1.49,0.48,2.41v0.56h-7.37v-1.2h6.61
				l-0.77,1.11v-0.59c0-0.71-0.11-1.29-0.32-1.76s-0.51-0.81-0.88-1.03s-0.81-0.34-1.29-0.34s-0.92,0.12-1.31,0.36
				s-0.69,0.59-0.91,1.05s-0.33,1.04-0.33,1.72v0.59c0,0.64,0.11,1.2,0.33,1.65s0.53,0.81,0.94,1.05s0.88,0.36,1.43,0.36
				c0.39,0,0.73-0.06,1.04-0.18s0.56-0.28,0.76-0.48s0.35-0.44,0.44-0.7l0.03-0.08h1.5l-0.02,0.09c-0.08,0.38-0.22,0.73-0.43,1.05
				s-0.49,0.62-0.82,0.87s-0.71,0.44-1.14,0.58s-0.89,0.21-1.39,0.21C522.89,232.38,522.14,232.19,521.51,231.8z"/>
			<path d="M530.61,232.04c-0.52-0.23-0.93-0.55-1.23-0.96s-0.49-0.89-0.55-1.43l-0.01-0.08h1.53l0.02,0.09
				c0.09,0.46,0.31,0.81,0.66,1.07s0.83,0.38,1.45,0.38c0.42,0,0.77-0.05,1.06-0.16s0.52-0.26,0.68-0.47s0.24-0.44,0.24-0.72v-0.01
				c0-0.33-0.1-0.59-0.3-0.79s-0.56-0.36-1.08-0.49l-1.45-0.35c-0.86-0.21-1.5-0.51-1.92-0.93s-0.63-0.95-0.63-1.6v-0.01
				c0-0.53,0.14-0.99,0.43-1.4s0.68-0.72,1.19-0.95s1.09-0.34,1.74-0.34c0.67,0,1.25,0.12,1.75,0.36s0.88,0.56,1.17,0.97
				s0.44,0.87,0.48,1.38l0.01,0.11h-1.46l-0.01-0.06c-0.06-0.45-0.25-0.8-0.58-1.07s-0.78-0.4-1.35-0.4c-0.37,0-0.69,0.05-0.96,0.17
				s-0.48,0.27-0.62,0.47s-0.22,0.44-0.22,0.71v0.01c0,0.31,0.11,0.57,0.33,0.79s0.59,0.39,1.09,0.51l1.45,0.35
				c0.93,0.22,1.58,0.53,1.95,0.92s0.56,0.91,0.56,1.56v0.01c0,0.53-0.15,1.01-0.46,1.42s-0.73,0.73-1.27,0.96s-1.14,0.35-1.82,0.35
				C531.75,232.38,531.13,232.27,530.61,232.04z"/>
			<path d="M539.14,231.8c-0.64-0.39-1.13-0.94-1.47-1.65s-0.52-1.55-0.52-2.52v-0.01c0-0.96,0.18-1.79,0.53-2.5
				s0.84-1.26,1.48-1.64s1.37-0.58,2.21-0.58c0.76,0,1.42,0.15,1.96,0.44s0.97,0.68,1.29,1.15s0.5,0.96,0.57,1.48l0.01,0.07h-1.49
				l-0.02-0.07c-0.11-0.46-0.36-0.86-0.73-1.2s-0.9-0.52-1.58-0.52c-0.53,0-0.99,0.14-1.39,0.42s-0.71,0.67-0.93,1.18
				s-0.33,1.11-0.33,1.8v0.01c0,0.71,0.11,1.31,0.34,1.82s0.54,0.89,0.94,1.16s0.87,0.4,1.39,0.4c0.63,0,1.14-0.16,1.53-0.48
				s0.65-0.73,0.78-1.24l0.02-0.07h1.5l-0.01,0.06c-0.08,0.58-0.29,1.1-0.64,1.57s-0.79,0.83-1.33,1.11s-1.16,0.41-1.85,0.41
				C540.53,232.38,539.78,232.19,539.14,231.8z"/>
			<path d="M546.62,223.06h1.53v1.55h0.04c0.15-0.53,0.42-0.95,0.79-1.26s0.82-0.47,1.34-0.47c0.13,0,0.26,0.01,0.37,0.02
				s0.19,0.03,0.25,0.04v1.48c-0.06-0.02-0.16-0.04-0.31-0.06s-0.32-0.03-0.51-0.03c-0.39,0-0.74,0.09-1.03,0.26
				s-0.52,0.43-0.69,0.76s-0.24,0.73-0.24,1.19v5.64h-1.53V223.06z"/>
			<path d="M552.35,221.24c-0.19-0.19-0.28-0.41-0.28-0.68c0-0.27,0.09-0.5,0.28-0.68s0.41-0.28,0.68-0.28
				c0.27,0,0.5,0.09,0.68,0.28s0.28,0.41,0.28,0.68c0,0.26-0.09,0.49-0.28,0.68s-0.41,0.28-0.68,0.28
				C552.76,221.52,552.54,221.42,552.35,221.24z M552.26,223.06h1.53v9.14h-1.53V223.06z"/>
			<path d="M555.87,223.06h1.53v1.55h0.04c0.19-0.36,0.43-0.66,0.72-0.92s0.61-0.45,0.98-0.59s0.77-0.21,1.2-0.21
				c0.78,0,1.46,0.2,2.04,0.58s1.04,0.94,1.36,1.65s0.48,1.55,0.48,2.51v0.01c0,0.96-0.16,1.79-0.49,2.5s-0.78,1.26-1.35,1.65
				s-1.25,0.58-2.02,0.58c-0.43,0-0.83-0.07-1.2-0.21s-0.71-0.33-1-0.59s-0.53-0.56-0.73-0.91h-0.04v4.61h-1.53V223.06z
				 M561.44,230.62c0.39-0.28,0.69-0.67,0.91-1.17s0.32-1.11,0.32-1.8v-0.01c0-0.7-0.11-1.31-0.32-1.81s-0.51-0.9-0.91-1.17
				s-0.86-0.41-1.4-0.41c-0.52,0-0.97,0.14-1.37,0.42s-0.71,0.68-0.94,1.18s-0.34,1.1-0.34,1.79v0.01c0,0.68,0.11,1.27,0.34,1.78
				s0.54,0.9,0.94,1.18s0.85,0.42,1.37,0.42C560.58,231.03,561.04,230.89,561.44,230.62z"/>
			<path d="M566.85,231.78c-0.42-0.4-0.62-1.03-0.62-1.91v-5.55h-1.34v-1.27h1.34v-2.47h1.58v2.47h1.74v1.27h-1.74v5.54
				c0,0.49,0.11,0.82,0.32,0.99s0.52,0.26,0.93,0.26c0.09,0,0.18,0,0.27-0.01s0.16-0.02,0.22-0.02v1.24
				c-0.09,0.01-0.21,0.02-0.36,0.04s-0.3,0.02-0.45,0.02C567.89,232.38,567.27,232.18,566.85,231.78z"/>
			<path d="M571.37,221.24c-0.19-0.19-0.28-0.41-0.28-0.68c0-0.27,0.09-0.5,0.28-0.68s0.41-0.28,0.68-0.28
				c0.27,0,0.5,0.09,0.68,0.28s0.28,0.41,0.28,0.68c0,0.26-0.09,0.49-0.28,0.68s-0.41,0.28-0.68,0.28
				C571.78,221.52,571.55,221.42,571.37,221.24z M571.28,223.06h1.53v9.14h-1.53V223.06z"/>
			<path d="M576.46,231.8c-0.64-0.39-1.13-0.94-1.49-1.65s-0.53-1.55-0.53-2.52v-0.02c0-0.97,0.18-1.81,0.53-2.52
				s0.85-1.25,1.49-1.63s1.37-0.58,2.21-0.58c0.84,0,1.58,0.19,2.22,0.58s1.13,0.93,1.49,1.63s0.53,1.54,0.53,2.52v0.02
				c0,0.97-0.18,1.81-0.53,2.52s-0.85,1.26-1.48,1.64s-1.37,0.58-2.21,0.58S577.1,232.19,576.46,231.8z M580.09,230.63
				c0.4-0.27,0.7-0.65,0.92-1.16s0.33-1.12,0.33-1.83v-0.02c0-0.71-0.11-1.32-0.33-1.83s-0.53-0.89-0.93-1.15s-0.87-0.4-1.41-0.4
				c-0.53,0-0.99,0.13-1.39,0.4s-0.71,0.65-0.94,1.15s-0.33,1.11-0.33,1.82v0.02c0,0.71,0.11,1.33,0.33,1.83s0.54,0.89,0.94,1.16
				s0.87,0.4,1.41,0.4S579.7,230.89,580.09,230.63z"/>
			<path d="M584.45,223.06h1.53v1.3h0.04c0.25-0.43,0.6-0.78,1.07-1.06s1.05-0.42,1.74-0.42c1,0,1.78,0.3,2.33,0.91
				s0.83,1.43,0.83,2.47v5.93h-1.53v-5.66c0-0.74-0.17-1.31-0.52-1.71s-0.88-0.59-1.58-0.59c-0.48,0-0.9,0.11-1.26,0.32
				s-0.63,0.51-0.83,0.9s-0.29,0.84-0.29,1.36v5.38h-1.53V223.06z"/>
			<path d="M599.19,231.8c-0.64-0.39-1.13-0.94-1.49-1.65s-0.53-1.55-0.53-2.52v-0.02c0-0.97,0.18-1.81,0.53-2.52
				s0.85-1.25,1.49-1.63s1.37-0.58,2.21-0.58c0.84,0,1.58,0.19,2.22,0.58s1.13,0.93,1.49,1.63s0.53,1.54,0.53,2.52v0.02
				c0,0.97-0.18,1.81-0.53,2.52s-0.85,1.26-1.48,1.64s-1.37,0.58-2.21,0.58S599.83,232.19,599.19,231.8z M602.82,230.63
				c0.4-0.27,0.7-0.65,0.92-1.16s0.33-1.12,0.33-1.83v-0.02c0-0.71-0.11-1.32-0.33-1.83s-0.53-0.89-0.93-1.15s-0.87-0.4-1.41-0.4
				c-0.53,0-0.99,0.13-1.39,0.4s-0.71,0.65-0.94,1.15s-0.33,1.11-0.33,1.82v0.02c0,0.71,0.11,1.33,0.33,1.83s0.54,0.89,0.94,1.16
				s0.87,0.4,1.41,0.4S602.42,230.89,602.82,230.63z"/>
			<path d="M607.67,224.33h-1.27v-1.27h1.27v-1.12c0-0.88,0.21-1.53,0.62-1.96s1.04-0.64,1.88-0.64c0.17,0,0.34,0.01,0.51,0.02
				s0.31,0.03,0.42,0.04v1.24c-0.09-0.01-0.2-0.02-0.31-0.03s-0.23-0.01-0.35-0.01c-0.42,0-0.74,0.11-0.95,0.33
				s-0.32,0.56-0.32,1.01v1.12h1.88v1.27h-1.86v7.88h-1.53V224.33z"/>
			<path d="M617.42,231.78c-0.42-0.4-0.62-1.03-0.62-1.91v-5.55h-1.34v-1.27h1.34v-2.47h1.58v2.47h1.74v1.27h-1.74v5.54
				c0,0.49,0.11,0.82,0.32,0.99s0.52,0.26,0.93,0.26c0.09,0,0.18,0,0.27-0.01s0.16-0.02,0.22-0.02v1.24
				c-0.09,0.01-0.21,0.02-0.36,0.04s-0.3,0.02-0.45,0.02C618.46,232.38,617.84,232.18,617.42,231.78z"/>
			<path d="M621.83,219.52h1.53v5h0.04c0.25-0.52,0.61-0.92,1.1-1.2s1.07-0.43,1.75-0.43c0.65,0,1.22,0.16,1.71,0.47
				s0.87,0.75,1.15,1.3s0.41,1.21,0.41,1.94v5.6h-1.53v-5.33c0-0.83-0.2-1.47-0.6-1.93s-0.96-0.7-1.67-0.7
				c-0.47,0-0.88,0.11-1.23,0.33s-0.63,0.53-0.83,0.92s-0.29,0.85-0.29,1.37v5.33h-1.53V219.52z"/>
			<path d="M632.97,231.8c-0.63-0.39-1.11-0.93-1.45-1.64s-0.51-1.54-0.51-2.49v-0.01c0-0.94,0.17-1.77,0.51-2.49
				s0.82-1.28,1.43-1.68s1.34-0.6,2.17-0.6s1.55,0.19,2.15,0.58s1.06,0.92,1.38,1.61s0.48,1.49,0.48,2.41v0.56h-7.37v-1.2h6.61
				l-0.77,1.11v-0.59c0-0.71-0.11-1.29-0.32-1.76s-0.51-0.81-0.88-1.03s-0.81-0.34-1.29-0.34s-0.92,0.12-1.31,0.36
				s-0.69,0.59-0.91,1.05s-0.33,1.04-0.33,1.72v0.59c0,0.64,0.11,1.2,0.33,1.65s0.53,0.81,0.94,1.05s0.88,0.36,1.43,0.36
				c0.39,0,0.73-0.06,1.04-0.18s0.56-0.28,0.76-0.48s0.35-0.44,0.44-0.7l0.03-0.08h1.5l-0.02,0.09c-0.08,0.38-0.22,0.73-0.43,1.05
				s-0.49,0.62-0.82,0.87s-0.71,0.44-1.14,0.58s-0.89,0.21-1.39,0.21C634.35,232.38,633.6,232.19,632.97,231.8z"/>
			<path d="M507.79,244.67h1.53V246h0.04c0.21-0.45,0.53-0.82,0.97-1.09c0.44-0.28,0.95-0.42,1.54-0.42c0.42,0,0.79,0.07,1.13,0.21
				c0.34,0.14,0.63,0.34,0.87,0.6c0.25,0.26,0.43,0.58,0.56,0.95h0.04c0.17-0.37,0.4-0.68,0.68-0.94c0.28-0.26,0.61-0.46,0.98-0.6
				s0.77-0.21,1.2-0.21c0.6,0,1.13,0.12,1.57,0.37c0.45,0.25,0.79,0.6,1.04,1.04c0.25,0.45,0.37,0.98,0.37,1.59v6.31h-1.53v-5.96
				c0-0.63-0.17-1.12-0.5-1.47c-0.33-0.36-0.8-0.53-1.4-0.53c-0.4,0-0.76,0.09-1.07,0.28c-0.31,0.19-0.55,0.44-0.73,0.77
				c-0.18,0.32-0.26,0.7-0.26,1.11v5.81h-1.53v-6.13c0-0.56-0.17-1-0.51-1.34s-0.79-0.5-1.36-0.5c-0.4,0-0.76,0.1-1.08,0.29
				c-0.31,0.2-0.56,0.46-0.74,0.8s-0.27,0.71-0.27,1.14v5.73h-1.53V244.67z"/>
			<path d="M523.33,253.64c-0.46-0.23-0.81-0.55-1.07-0.97s-0.38-0.9-0.38-1.45v-0.02c0-0.78,0.29-1.4,0.87-1.87
				c0.58-0.46,1.39-0.73,2.44-0.79l3.38-0.19v1.19l-3.21,0.19c-0.61,0.04-1.08,0.18-1.42,0.44s-0.51,0.6-0.51,1.03v0.02
				c0,0.44,0.17,0.79,0.5,1.05s0.77,0.39,1.32,0.39c0.48,0,0.91-0.1,1.3-0.3c0.38-0.2,0.69-0.48,0.91-0.83s0.34-0.75,0.34-1.19v-2.7
				c0-0.56-0.17-1-0.52-1.31c-0.35-0.32-0.84-0.48-1.48-0.48c-0.59,0-1.06,0.13-1.42,0.38c-0.36,0.26-0.58,0.59-0.67,1l-0.02,0.08
				h-1.48l0.01-0.1c0.05-0.5,0.22-0.96,0.51-1.37s0.7-0.74,1.23-0.98c0.52-0.24,1.14-0.36,1.85-0.36c0.72,0,1.34,0.12,1.87,0.37
				s0.93,0.59,1.22,1.04c0.29,0.45,0.43,0.98,0.43,1.59v6.32h-1.53v-1.49h-0.04c-0.18,0.33-0.41,0.62-0.7,0.88
				c-0.29,0.25-0.62,0.44-0.99,0.58c-0.37,0.14-0.75,0.21-1.17,0.21C524.31,253.98,523.78,253.87,523.33,253.64z"/>
			<path d="M529.91,256.89c-0.05,0-0.1,0-0.15-0.01v-1.34c0.04,0,0.08,0,0.12,0s0.08,0,0.12,0c0.5,0,0.85-0.09,1.05-0.28
				s0.3-0.54,0.3-1.05v-9.54h1.53v9.53c0,0.93-0.23,1.61-0.68,2.04c-0.45,0.44-1.17,0.65-2.15,0.65
				C530.01,256.89,529.96,256.89,529.91,256.89z M531.45,242.84c-0.19-0.19-0.28-0.41-0.28-0.68c0-0.27,0.09-0.5,0.28-0.68
				c0.19-0.18,0.41-0.28,0.68-0.28c0.27,0,0.5,0.09,0.68,0.28c0.18,0.19,0.28,0.41,0.28,0.68c0,0.26-0.09,0.49-0.28,0.68
				s-0.41,0.28-0.68,0.28C531.86,243.12,531.63,243.02,531.45,242.84z"/>
			<path d="M536.54,253.4c-0.64-0.39-1.13-0.94-1.49-1.65c-0.35-0.71-0.53-1.55-0.53-2.52v-0.02c0-0.97,0.18-1.81,0.53-2.52
				c0.35-0.71,0.85-1.25,1.49-1.63c0.64-0.38,1.37-0.58,2.21-0.58c0.84,0,1.58,0.19,2.22,0.58c0.64,0.38,1.13,0.93,1.49,1.63
				c0.35,0.71,0.53,1.55,0.53,2.52v0.02c0,0.97-0.18,1.81-0.53,2.52s-0.85,1.26-1.48,1.64s-1.37,0.58-2.21,0.58
				S537.18,253.79,536.54,253.4z M540.17,252.23c0.4-0.27,0.7-0.65,0.92-1.16c0.22-0.51,0.33-1.12,0.33-1.83v-0.02
				c0-0.71-0.11-1.32-0.33-1.83s-0.53-0.89-0.93-1.15s-0.87-0.4-1.41-0.4c-0.53,0-0.99,0.13-1.39,0.4c-0.4,0.27-0.71,0.65-0.94,1.15
				c-0.22,0.5-0.33,1.11-0.33,1.82v0.02c0,0.71,0.11,1.33,0.33,1.83c0.22,0.51,0.54,0.89,0.94,1.16c0.4,0.27,0.87,0.4,1.41,0.4
				S539.78,252.49,540.17,252.23z"/>
			<path d="M544.53,244.67h1.53v1.55h0.04c0.15-0.53,0.42-0.95,0.79-1.26s0.82-0.47,1.34-0.47c0.13,0,0.26,0.01,0.37,0.02
				c0.11,0.01,0.19,0.03,0.25,0.04v1.49c-0.06-0.02-0.16-0.04-0.31-0.06s-0.32-0.03-0.51-0.03c-0.39,0-0.74,0.09-1.03,0.26
				s-0.52,0.43-0.69,0.76c-0.16,0.33-0.24,0.73-0.24,1.19v5.64h-1.53V244.67z"/>
			<path d="M553.76,244.67h1.53V246h0.04c0.21-0.45,0.53-0.82,0.97-1.09c0.44-0.28,0.95-0.42,1.54-0.42c0.42,0,0.79,0.07,1.13,0.21
				c0.34,0.14,0.63,0.34,0.87,0.6c0.25,0.26,0.43,0.58,0.56,0.95h0.04c0.17-0.37,0.4-0.68,0.68-0.94c0.28-0.26,0.61-0.46,0.98-0.6
				s0.77-0.21,1.2-0.21c0.6,0,1.13,0.12,1.57,0.37c0.45,0.25,0.79,0.6,1.04,1.04c0.25,0.45,0.37,0.98,0.37,1.59v6.31h-1.53v-5.96
				c0-0.63-0.17-1.12-0.5-1.47c-0.33-0.36-0.8-0.53-1.4-0.53c-0.4,0-0.76,0.09-1.07,0.28c-0.31,0.19-0.55,0.44-0.73,0.77
				c-0.18,0.32-0.26,0.7-0.26,1.11v5.81h-1.53v-6.13c0-0.56-0.17-1-0.51-1.34s-0.79-0.5-1.36-0.5c-0.4,0-0.76,0.1-1.08,0.29
				c-0.31,0.2-0.56,0.46-0.74,0.8s-0.27,0.71-0.27,1.14v5.73h-1.53V244.67z"/>
			<path d="M568.41,242.84c-0.19-0.19-0.28-0.41-0.28-0.68c0-0.27,0.09-0.5,0.28-0.68c0.19-0.18,0.41-0.28,0.68-0.28
				c0.27,0,0.5,0.09,0.68,0.28c0.18,0.19,0.28,0.41,0.28,0.68c0,0.26-0.09,0.49-0.28,0.68s-0.41,0.28-0.68,0.28
				C568.82,243.12,568.59,243.02,568.41,242.84z M568.32,244.67h1.53v9.14h-1.53V244.67z"/>
			<path d="M572.01,241.12h1.53v12.68h-1.53V241.12z"/>
			<path d="M577.11,253.4c-0.63-0.39-1.11-0.93-1.45-1.64c-0.34-0.71-0.51-1.54-0.51-2.49v-0.01c0-0.94,0.17-1.77,0.51-2.49
				c0.34-0.72,0.82-1.28,1.43-1.68c0.62-0.4,1.34-0.6,2.17-0.6s1.55,0.19,2.15,0.58c0.6,0.38,1.06,0.92,1.38,1.61
				s0.48,1.49,0.48,2.41v0.56h-7.37v-1.2h6.61l-0.77,1.11v-0.59c0-0.71-0.11-1.29-0.32-1.76s-0.51-0.81-0.88-1.03
				c-0.38-0.23-0.81-0.34-1.29-0.34s-0.92,0.12-1.31,0.36c-0.39,0.24-0.69,0.59-0.91,1.05c-0.22,0.46-0.33,1.04-0.33,1.72v0.59
				c0,0.64,0.11,1.2,0.33,1.65s0.53,0.81,0.94,1.05c0.4,0.24,0.88,0.36,1.43,0.36c0.39,0,0.73-0.06,1.04-0.18s0.56-0.28,0.76-0.48
				s0.35-0.44,0.44-0.7l0.03-0.08h1.5l-0.02,0.09c-0.08,0.38-0.22,0.73-0.43,1.05s-0.49,0.62-0.82,0.87
				c-0.33,0.25-0.71,0.44-1.14,0.58c-0.43,0.14-0.89,0.21-1.39,0.21C578.49,253.98,577.74,253.79,577.11,253.4z"/>
			<path d="M586.21,253.64c-0.52-0.23-0.93-0.55-1.23-0.96s-0.49-0.89-0.55-1.43l-0.01-0.08h1.53l0.02,0.09
				c0.09,0.46,0.31,0.81,0.66,1.07c0.35,0.26,0.83,0.38,1.45,0.38c0.42,0,0.77-0.05,1.06-0.16c0.29-0.11,0.52-0.26,0.68-0.47
				c0.16-0.2,0.24-0.44,0.24-0.72v-0.01c0-0.33-0.1-0.59-0.3-0.79s-0.56-0.36-1.08-0.49l-1.45-0.35c-0.86-0.21-1.5-0.51-1.92-0.93
				c-0.42-0.41-0.63-0.95-0.63-1.6v-0.01c0-0.53,0.14-0.99,0.43-1.4s0.68-0.72,1.19-0.95s1.09-0.34,1.74-0.34
				c0.67,0,1.25,0.12,1.75,0.36c0.5,0.24,0.88,0.56,1.17,0.97c0.28,0.41,0.44,0.87,0.48,1.38l0.01,0.11h-1.46l-0.01-0.06
				c-0.06-0.45-0.25-0.8-0.58-1.07s-0.78-0.4-1.35-0.4c-0.37,0-0.69,0.06-0.96,0.17s-0.48,0.27-0.62,0.47
				c-0.14,0.2-0.22,0.44-0.22,0.71v0.01c0,0.31,0.11,0.57,0.33,0.79s0.59,0.39,1.09,0.51l1.45,0.35c0.93,0.22,1.58,0.53,1.95,0.92
				c0.38,0.39,0.56,0.91,0.56,1.56v0.01c0,0.53-0.15,1-0.46,1.42s-0.73,0.73-1.27,0.96c-0.54,0.23-1.14,0.35-1.82,0.35
				C587.35,253.98,586.73,253.87,586.21,253.64z"/>
			<path d="M594.29,253.38c-0.42-0.4-0.62-1.03-0.62-1.91v-5.55h-1.34v-1.27h1.34v-2.47h1.58v2.47h1.74v1.27h-1.74v5.54
				c0,0.49,0.11,0.82,0.32,0.99c0.21,0.17,0.52,0.26,0.93,0.26c0.09,0,0.18,0,0.27-0.01c0.08-0.01,0.16-0.02,0.22-0.02v1.24
				c-0.09,0.01-0.21,0.03-0.36,0.04c-0.15,0.02-0.3,0.02-0.45,0.02C595.33,253.98,594.71,253.78,594.29,253.38z"/>
			<path d="M600.19,253.4c-0.64-0.39-1.13-0.94-1.49-1.65c-0.35-0.71-0.53-1.55-0.53-2.52v-0.02c0-0.97,0.18-1.81,0.53-2.52
				c0.35-0.71,0.85-1.25,1.49-1.63c0.64-0.38,1.37-0.58,2.21-0.58c0.84,0,1.58,0.19,2.22,0.58c0.64,0.38,1.13,0.93,1.49,1.63
				c0.35,0.71,0.53,1.55,0.53,2.52v0.02c0,0.97-0.18,1.81-0.53,2.52s-0.85,1.26-1.48,1.64s-1.37,0.58-2.21,0.58
				S600.83,253.79,600.19,253.4z M603.82,252.23c0.4-0.27,0.7-0.65,0.92-1.16c0.22-0.51,0.33-1.12,0.33-1.83v-0.02
				c0-0.71-0.11-1.32-0.33-1.83s-0.53-0.89-0.93-1.15s-0.87-0.4-1.41-0.4c-0.53,0-0.99,0.13-1.39,0.4c-0.4,0.27-0.71,0.65-0.94,1.15
				c-0.22,0.5-0.33,1.11-0.33,1.82v0.02c0,0.71,0.11,1.33,0.33,1.83c0.22,0.51,0.54,0.89,0.94,1.16c0.4,0.27,0.87,0.4,1.41,0.4
				S603.43,252.49,603.82,252.23z"/>
			<path d="M608.18,244.67h1.53v1.3h0.04c0.25-0.43,0.6-0.78,1.07-1.06c0.47-0.28,1.05-0.42,1.74-0.42c1,0,1.78,0.3,2.33,0.91
				c0.55,0.61,0.83,1.43,0.83,2.47v5.93h-1.53v-5.66c0-0.74-0.17-1.31-0.52-1.71c-0.35-0.39-0.88-0.59-1.58-0.59
				c-0.48,0-0.9,0.11-1.26,0.32c-0.36,0.21-0.63,0.51-0.83,0.9s-0.29,0.84-0.29,1.36v5.38h-1.53V244.67z"/>
			<path d="M619.17,253.4c-0.63-0.39-1.11-0.93-1.45-1.64c-0.34-0.71-0.51-1.54-0.51-2.49v-0.01c0-0.94,0.17-1.77,0.51-2.49
				c0.34-0.72,0.82-1.28,1.43-1.68c0.62-0.4,1.34-0.6,2.17-0.6s1.55,0.19,2.15,0.58c0.6,0.38,1.06,0.92,1.38,1.61
				s0.48,1.49,0.48,2.41v0.56h-7.37v-1.2h6.61l-0.77,1.11v-0.59c0-0.71-0.11-1.29-0.32-1.76s-0.51-0.81-0.88-1.03
				c-0.38-0.23-0.81-0.34-1.29-0.34s-0.92,0.12-1.31,0.36c-0.39,0.24-0.69,0.59-0.91,1.05c-0.22,0.46-0.33,1.04-0.33,1.72v0.59
				c0,0.64,0.11,1.2,0.33,1.65s0.53,0.81,0.94,1.05c0.4,0.24,0.88,0.36,1.43,0.36c0.39,0,0.73-0.06,1.04-0.18s0.56-0.28,0.76-0.48
				s0.35-0.44,0.44-0.7l0.03-0.08h1.5l-0.02,0.09c-0.08,0.38-0.22,0.73-0.43,1.05s-0.49,0.62-0.82,0.87
				c-0.33,0.25-0.71,0.44-1.14,0.58c-0.43,0.14-0.89,0.21-1.39,0.21C620.55,253.98,619.8,253.79,619.17,253.4z"/>
		</g>
	</g>
	<line class="st7" x1="498.27" y1="303.97" x2="498.27" y2="219.52"/>
	<line class="st7" x1="420.52" y1="303.97" x2="420.52" y2="144.74"/>
	<g>
		<g>
			<g>
				<path d="M820.42,10.89h4.75c0.81,0,1.52,0.16,2.13,0.47c0.61,0.31,1.08,0.75,1.41,1.32s0.5,1.23,0.5,1.99v0.02
					c0,0.88-0.23,1.64-0.68,2.28c-0.46,0.64-1.08,1.09-1.87,1.34l2.94,5.26h-1.85l-2.72-5.02c-0.02,0-0.03,0-0.05,0
					c-0.02,0-0.03,0-0.05,0h-2.94v5.02h-1.58V10.89z M825.04,17.16c0.81,0,1.44-0.21,1.89-0.63c0.44-0.42,0.66-1.02,0.66-1.8V14.7
					c0-0.76-0.23-1.35-0.7-1.77c-0.47-0.42-1.11-0.64-1.92-0.64h-2.96v4.86H825.04z"/>
				<path d="M832.48,23.17c-0.63-0.39-1.11-0.93-1.45-1.64c-0.34-0.71-0.51-1.54-0.51-2.49v-0.01c0-0.94,0.17-1.77,0.51-2.49
					s0.82-1.28,1.43-1.68s1.34-0.6,2.17-0.6s1.55,0.19,2.15,0.58s1.06,0.92,1.38,1.61s0.48,1.49,0.48,2.41v0.56h-7.37v-1.2h6.61
					l-0.77,1.11v-0.59c0-0.71-0.11-1.29-0.32-1.76s-0.51-0.81-0.88-1.03s-0.81-0.34-1.29-0.34s-0.92,0.12-1.31,0.36
					s-0.69,0.59-0.91,1.05s-0.33,1.04-0.33,1.72v0.59c0,0.64,0.11,1.2,0.33,1.65c0.22,0.46,0.53,0.81,0.94,1.05s0.88,0.36,1.43,0.36
					c0.39,0,0.73-0.06,1.04-0.18s0.56-0.28,0.76-0.48s0.35-0.44,0.44-0.7l0.03-0.08h1.5l-0.02,0.09c-0.08,0.38-0.22,0.73-0.44,1.05
					s-0.49,0.62-0.82,0.87s-0.71,0.44-1.14,0.58s-0.89,0.21-1.39,0.21C833.86,23.75,833.11,23.55,832.48,23.17z"/>
				<path d="M840.19,14.43h1.53v1.34h0.04c0.21-0.45,0.53-0.82,0.97-1.09s0.95-0.42,1.54-0.42c0.42,0,0.79,0.07,1.13,0.21
					s0.63,0.34,0.88,0.6s0.43,0.58,0.56,0.95h0.04c0.17-0.37,0.4-0.68,0.68-0.94c0.28-0.26,0.61-0.46,0.98-0.6
					c0.37-0.14,0.77-0.21,1.2-0.21c0.6,0,1.13,0.12,1.57,0.37s0.79,0.6,1.04,1.05s0.37,0.98,0.37,1.59v6.31h-1.53v-5.96
					c0-0.63-0.17-1.12-0.5-1.47s-0.8-0.53-1.4-0.53c-0.4,0-0.76,0.09-1.07,0.28s-0.55,0.44-0.73,0.76s-0.26,0.7-0.26,1.11v5.81
					h-1.53v-6.13c0-0.56-0.17-1-0.51-1.34s-0.79-0.5-1.36-0.5c-0.4,0-0.76,0.1-1.08,0.29s-0.56,0.46-0.74,0.8s-0.27,0.71-0.27,1.14
					v5.73h-1.53V14.43z"/>
				<path d="M856.22,23.17c-0.64-0.39-1.13-0.94-1.49-1.65s-0.53-1.55-0.53-2.52v-0.02c0-0.97,0.18-1.81,0.53-2.52
					s0.85-1.25,1.49-1.63c0.63-0.38,1.37-0.58,2.21-0.58c0.84,0,1.58,0.19,2.22,0.58c0.63,0.38,1.13,0.93,1.48,1.63
					s0.53,1.55,0.53,2.52V19c0,0.97-0.18,1.81-0.53,2.52s-0.85,1.26-1.48,1.64s-1.37,0.58-2.21,0.58S856.85,23.55,856.22,23.17z
					 M859.85,21.99c0.4-0.27,0.7-0.65,0.92-1.16c0.22-0.51,0.33-1.12,0.33-1.83v-0.02c0-0.71-0.11-1.32-0.33-1.83
					c-0.22-0.5-0.53-0.89-0.93-1.15c-0.4-0.26-0.87-0.4-1.41-0.4c-0.53,0-0.99,0.13-1.39,0.4s-0.71,0.65-0.94,1.15
					s-0.33,1.11-0.33,1.82V19c0,0.71,0.11,1.33,0.33,1.83s0.53,0.89,0.94,1.16s0.87,0.4,1.41,0.4S859.45,22.26,859.85,21.99z"/>
				<path d="M863.41,14.43h1.61l2.52,7.51h0.04l2.53-7.51h1.59l-3.36,9.14h-1.56L863.41,14.43z"/>
				<path d="M873.08,12.6c-0.19-0.19-0.28-0.41-0.28-0.68c0-0.27,0.09-0.5,0.28-0.68s0.41-0.28,0.68-0.28c0.27,0,0.5,0.09,0.68,0.28
					c0.19,0.18,0.28,0.41,0.28,0.68c0,0.26-0.09,0.49-0.28,0.68c-0.18,0.19-0.41,0.28-0.68,0.28
					C873.49,12.88,873.27,12.79,873.08,12.6z M872.99,14.43h1.53v9.14h-1.53V14.43z"/>
				<path d="M876.6,14.43h1.53v1.3h0.04c0.25-0.43,0.6-0.78,1.07-1.06s1.05-0.42,1.74-0.42c1,0,1.78,0.3,2.33,0.91
					c0.55,0.61,0.83,1.43,0.83,2.47v5.93h-1.53v-5.66c0-0.74-0.17-1.31-0.52-1.71c-0.35-0.4-0.88-0.59-1.58-0.59
					c-0.48,0-0.9,0.11-1.26,0.32s-0.63,0.51-0.83,0.9s-0.29,0.84-0.29,1.36v5.38h-1.53V14.43z"/>
				<path d="M887.99,26.5c-0.56-0.21-1.01-0.5-1.35-0.87c-0.34-0.37-0.56-0.77-0.66-1.23l-0.02-0.08h1.54l0.04,0.08
					c0.15,0.33,0.43,0.59,0.85,0.78c0.42,0.19,0.94,0.29,1.56,0.29c0.8,0,1.42-0.21,1.86-0.62s0.66-0.97,0.66-1.68V22h-0.04
					c-0.18,0.34-0.42,0.63-0.7,0.88s-0.62,0.44-0.99,0.58c-0.37,0.14-0.78,0.21-1.22,0.21c-0.77,0-1.44-0.19-2.03-0.58
					s-1.04-0.94-1.36-1.64c-0.33-0.71-0.49-1.53-0.49-2.48v-0.01c0-0.95,0.17-1.77,0.5-2.47s0.79-1.24,1.38-1.63
					s1.27-0.58,2.04-0.58c0.43,0,0.83,0.07,1.2,0.22s0.69,0.35,0.97,0.61c0.28,0.26,0.52,0.56,0.71,0.9h0.04v-1.55h1.53v8.89
					c0,0.71-0.16,1.33-0.49,1.85s-0.79,0.93-1.4,1.22s-1.32,0.44-2.14,0.44C889.21,26.82,888.55,26.72,887.99,26.5z M891.22,21.89
					c0.39-0.28,0.7-0.67,0.91-1.17c0.22-0.5,0.33-1.09,0.33-1.77v-0.01c0-0.67-0.11-1.26-0.33-1.76c-0.22-0.5-0.53-0.88-0.92-1.16
					s-0.85-0.41-1.36-0.41c-0.54,0-1.01,0.14-1.41,0.41s-0.71,0.66-0.92,1.16s-0.32,1.09-0.32,1.77v0.01c0,0.69,0.11,1.29,0.32,1.79
					s0.52,0.89,0.92,1.16s0.87,0.41,1.41,0.41C890.37,22.31,890.83,22.17,891.22,21.89z"/>
				<path d="M901.23,23.17c-0.64-0.39-1.13-0.94-1.49-1.65s-0.53-1.55-0.53-2.52v-0.02c0-0.97,0.18-1.81,0.53-2.52
					s0.85-1.25,1.49-1.63c0.63-0.38,1.37-0.58,2.21-0.58c0.84,0,1.58,0.19,2.22,0.58c0.63,0.38,1.13,0.93,1.48,1.63
					s0.53,1.55,0.53,2.52V19c0,0.97-0.18,1.81-0.53,2.52s-0.85,1.26-1.48,1.64s-1.37,0.58-2.21,0.58S901.86,23.55,901.23,23.17z
					 M904.86,21.99c0.4-0.27,0.7-0.65,0.92-1.16c0.22-0.51,0.33-1.12,0.33-1.83v-0.02c0-0.71-0.11-1.32-0.33-1.83
					c-0.22-0.5-0.53-0.89-0.93-1.15c-0.4-0.26-0.87-0.4-1.41-0.4c-0.53,0-0.99,0.13-1.39,0.4s-0.71,0.65-0.94,1.15
					s-0.33,1.11-0.33,1.82V19c0,0.71,0.11,1.33,0.33,1.83s0.53,0.89,0.94,1.16s0.87,0.4,1.41,0.4S904.46,22.26,904.86,21.99z"/>
				<path d="M909.21,14.43h1.53v1.3h0.04c0.25-0.43,0.6-0.78,1.07-1.06s1.05-0.42,1.74-0.42c1,0,1.78,0.3,2.33,0.91
					c0.55,0.61,0.83,1.43,0.83,2.47v5.93h-1.53v-5.66c0-0.74-0.17-1.31-0.52-1.71c-0.35-0.4-0.88-0.59-1.58-0.59
					c-0.48,0-0.9,0.11-1.26,0.32s-0.63,0.51-0.83,0.9s-0.29,0.84-0.29,1.36v5.38h-1.53V14.43z"/>
				<path d="M920.2,23.17c-0.63-0.39-1.11-0.93-1.45-1.64c-0.34-0.71-0.51-1.54-0.51-2.49v-0.01c0-0.94,0.17-1.77,0.51-2.49
					s0.82-1.28,1.43-1.68s1.34-0.6,2.17-0.6s1.55,0.19,2.15,0.58s1.06,0.92,1.38,1.61s0.48,1.49,0.48,2.41v0.56h-7.37v-1.2h6.61
					l-0.77,1.11v-0.59c0-0.71-0.11-1.29-0.32-1.76s-0.51-0.81-0.88-1.03s-0.81-0.34-1.29-0.34s-0.92,0.12-1.31,0.36
					s-0.69,0.59-0.91,1.05s-0.33,1.04-0.33,1.72v0.59c0,0.64,0.11,1.2,0.33,1.65c0.22,0.46,0.53,0.81,0.94,1.05s0.88,0.36,1.43,0.36
					c0.39,0,0.73-0.06,1.04-0.18s0.56-0.28,0.76-0.48s0.35-0.44,0.44-0.7l0.03-0.08h1.5l-0.02,0.09c-0.08,0.38-0.22,0.73-0.44,1.05
					s-0.49,0.62-0.82,0.87s-0.71,0.44-1.14,0.58s-0.89,0.21-1.39,0.21C921.58,23.75,920.83,23.55,920.2,23.17z"/>
				<path d="M822.09,48.1c-0.56-0.21-1.01-0.5-1.35-0.87c-0.34-0.37-0.56-0.77-0.66-1.23l-0.02-0.08h1.54l0.04,0.08
					c0.15,0.33,0.43,0.59,0.85,0.78c0.42,0.19,0.94,0.29,1.56,0.29c0.8,0,1.42-0.21,1.86-0.62s0.66-0.97,0.66-1.68V43.6h-0.04
					c-0.18,0.34-0.42,0.63-0.7,0.88s-0.62,0.44-0.99,0.58c-0.37,0.14-0.78,0.21-1.22,0.21c-0.77,0-1.44-0.19-2.03-0.58
					s-1.04-0.94-1.36-1.64c-0.33-0.71-0.49-1.53-0.49-2.48v-0.01c0-0.95,0.17-1.77,0.5-2.47s0.79-1.24,1.38-1.63
					s1.27-0.58,2.04-0.58c0.43,0,0.83,0.07,1.2,0.22s0.69,0.35,0.97,0.61c0.28,0.26,0.52,0.56,0.71,0.9h0.04v-1.55h1.53v8.89
					c0,0.71-0.16,1.33-0.49,1.85s-0.79,0.93-1.4,1.22s-1.32,0.44-2.14,0.44C823.3,48.42,822.65,48.32,822.09,48.1z M825.32,43.49
					c0.39-0.28,0.7-0.67,0.91-1.17c0.22-0.5,0.33-1.09,0.33-1.77v-0.01c0-0.67-0.11-1.26-0.33-1.76c-0.22-0.5-0.53-0.88-0.92-1.16
					s-0.85-0.41-1.36-0.41c-0.54,0-1.01,0.14-1.41,0.41s-0.71,0.66-0.92,1.16s-0.32,1.09-0.32,1.77v0.01c0,0.69,0.11,1.29,0.32,1.79
					s0.52,0.89,0.92,1.16s0.87,0.41,1.41,0.41C824.47,43.91,824.93,43.77,825.32,43.49z"/>
				<path d="M830.25,34.2c-0.19-0.19-0.28-0.41-0.28-0.68c0-0.27,0.09-0.5,0.28-0.68s0.41-0.28,0.68-0.28c0.27,0,0.5,0.09,0.68,0.28
					c0.19,0.18,0.28,0.41,0.28,0.68c0,0.26-0.09,0.49-0.28,0.68c-0.18,0.19-0.41,0.28-0.68,0.28
					C830.66,34.48,830.44,34.39,830.25,34.2z M830.16,36.03h1.53v9.14h-1.53V36.03z"/>
				<path d="M835.68,48.1c-0.56-0.21-1.01-0.5-1.35-0.87c-0.34-0.37-0.56-0.77-0.66-1.23l-0.02-0.08h1.54l0.04,0.08
					c0.15,0.33,0.43,0.59,0.85,0.78c0.42,0.19,0.94,0.29,1.56,0.29c0.8,0,1.42-0.21,1.86-0.62s0.66-0.97,0.66-1.68V43.6h-0.04
					c-0.18,0.34-0.42,0.63-0.7,0.88s-0.62,0.44-0.99,0.58c-0.37,0.14-0.78,0.21-1.22,0.21c-0.77,0-1.44-0.19-2.03-0.58
					s-1.04-0.94-1.36-1.64c-0.33-0.71-0.49-1.53-0.49-2.48v-0.01c0-0.95,0.17-1.77,0.5-2.47s0.79-1.24,1.38-1.63
					s1.27-0.58,2.04-0.58c0.43,0,0.83,0.07,1.2,0.22s0.69,0.35,0.97,0.61c0.28,0.26,0.52,0.56,0.71,0.9h0.04v-1.55h1.53v8.89
					c0,0.71-0.16,1.33-0.49,1.85s-0.79,0.93-1.4,1.22s-1.32,0.44-2.14,0.44C836.89,48.42,836.24,48.32,835.68,48.1z M838.9,43.49
					c0.39-0.28,0.7-0.67,0.91-1.17c0.22-0.5,0.33-1.09,0.33-1.77v-0.01c0-0.67-0.11-1.26-0.33-1.76c-0.22-0.5-0.53-0.88-0.92-1.16
					s-0.85-0.41-1.36-0.41c-0.54,0-1.01,0.14-1.41,0.41s-0.71,0.66-0.92,1.16s-0.32,1.09-0.32,1.77v0.01c0,0.69,0.11,1.29,0.32,1.79
					s0.52,0.89,0.92,1.16s0.87,0.41,1.41,0.41C838.06,43.91,838.51,43.77,838.9,43.49z"/>
				<path d="M844.74,45c-0.46-0.23-0.81-0.55-1.07-0.97c-0.25-0.42-0.38-0.9-0.38-1.45v-0.02c0-0.78,0.29-1.4,0.87-1.87
					s1.39-0.73,2.44-0.79l3.38-0.19v1.19l-3.21,0.19c-0.61,0.04-1.08,0.18-1.42,0.44s-0.5,0.6-0.5,1.03v0.02
					c0,0.44,0.17,0.79,0.5,1.05c0.33,0.26,0.77,0.39,1.32,0.39c0.48,0,0.91-0.1,1.3-0.3c0.38-0.2,0.69-0.48,0.91-0.83
					c0.22-0.35,0.34-0.75,0.34-1.19V39c0-0.56-0.17-0.99-0.52-1.31s-0.84-0.48-1.48-0.48c-0.59,0-1.06,0.13-1.42,0.38
					c-0.36,0.25-0.58,0.59-0.67,1l-0.02,0.08h-1.48l0.01-0.1c0.05-0.5,0.22-0.96,0.51-1.37c0.29-0.41,0.7-0.74,1.23-0.98
					s1.14-0.36,1.85-0.36c0.72,0,1.34,0.12,1.87,0.37s0.93,0.59,1.22,1.04s0.43,0.98,0.43,1.59v6.32h-1.53v-1.49h-0.04
					c-0.18,0.33-0.41,0.63-0.7,0.87s-0.62,0.44-0.99,0.58c-0.37,0.14-0.75,0.21-1.17,0.21C845.72,45.35,845.19,45.23,844.74,45z"/>
				<path d="M853.78,44.75c-0.42-0.4-0.62-1.03-0.62-1.91V37.3h-1.34v-1.27h1.34v-2.47h1.58v2.47h1.74v1.27h-1.74v5.54
					c0,0.49,0.11,0.82,0.32,0.99s0.52,0.26,0.93,0.26c0.09,0,0.18,0,0.27-0.01s0.16-0.02,0.22-0.02v1.24
					c-0.09,0.01-0.21,0.02-0.37,0.04c-0.15,0.01-0.3,0.02-0.45,0.02C854.82,45.35,854.2,45.15,853.78,44.75z"/>
				<path d="M859.68,44.77c-0.64-0.39-1.13-0.94-1.49-1.65s-0.53-1.55-0.53-2.52v-0.02c0-0.97,0.18-1.81,0.53-2.52
					s0.85-1.25,1.49-1.63c0.63-0.38,1.37-0.58,2.21-0.58c0.84,0,1.58,0.19,2.22,0.58c0.63,0.38,1.13,0.93,1.48,1.63
					s0.53,1.55,0.53,2.52v0.02c0,0.97-0.18,1.81-0.53,2.52s-0.85,1.26-1.48,1.64s-1.37,0.58-2.21,0.58S860.32,45.15,859.68,44.77z
					 M863.31,43.59c0.4-0.27,0.7-0.65,0.92-1.16c0.22-0.51,0.33-1.12,0.33-1.83v-0.02c0-0.71-0.11-1.32-0.33-1.83
					c-0.22-0.5-0.53-0.89-0.93-1.15c-0.4-0.26-0.87-0.4-1.41-0.4c-0.53,0-0.99,0.13-1.39,0.4s-0.71,0.65-0.94,1.15
					s-0.33,1.11-0.33,1.82v0.02c0,0.71,0.11,1.33,0.33,1.83s0.53,0.89,0.94,1.16s0.87,0.4,1.41,0.4S862.92,43.86,863.31,43.59z"/>
				<path d="M867.67,36.03h1.53v1.3h0.04c0.25-0.43,0.6-0.78,1.07-1.06s1.05-0.42,1.74-0.42c1,0,1.78,0.3,2.33,0.91
					c0.55,0.61,0.83,1.43,0.83,2.47v5.93h-1.53v-5.66c0-0.74-0.17-1.31-0.52-1.71c-0.35-0.4-0.88-0.59-1.58-0.59
					c-0.48,0-0.9,0.11-1.26,0.32s-0.63,0.51-0.83,0.9s-0.29,0.84-0.29,1.36v5.38h-1.53V36.03z"/>
				<path d="M883.31,44.57c-0.87-0.54-1.54-1.3-2.02-2.28s-0.71-2.14-0.71-3.47v-0.01c0-1.33,0.24-2.48,0.71-3.46
					s1.15-1.74,2.01-2.27s1.89-0.8,3.07-0.8c0.88,0,1.68,0.17,2.4,0.5s1.32,0.8,1.81,1.4c0.48,0.6,0.8,1.3,0.96,2.1l0.02,0.09h-1.6
					l-0.06-0.19c-0.16-0.52-0.41-0.95-0.73-1.31c-0.32-0.36-0.72-0.64-1.19-0.83s-1-0.29-1.6-0.29c-0.84,0-1.58,0.21-2.2,0.63
					c-0.62,0.42-1.11,1.01-1.45,1.77c-0.34,0.76-0.51,1.65-0.51,2.69v0.01c0,1.03,0.17,1.92,0.51,2.69
					c0.34,0.76,0.83,1.36,1.45,1.78s1.36,0.63,2.2,0.63c0.59,0,1.12-0.1,1.59-0.29c0.46-0.19,0.87-0.48,1.2-0.86s0.59-0.85,0.77-1.4
					l0.03-0.08h1.6l-0.02,0.09c-0.16,0.81-0.48,1.51-0.96,2.11s-1.08,1.06-1.8,1.39s-1.52,0.49-2.41,0.49
					C885.21,45.38,884.19,45.11,883.31,44.57z"/>
				<path d="M895.67,44.58c-0.88-0.53-1.55-1.29-2.03-2.27s-0.71-2.14-0.71-3.48v-0.02c0-1.34,0.24-2.5,0.72-3.48
					c0.48-0.98,1.15-1.73,2.03-2.26s1.91-0.8,3.11-0.8s2.23,0.27,3.1,0.8s1.55,1.29,2.02,2.26s0.71,2.13,0.71,3.48v0.02
					c0,1.34-0.24,2.5-0.71,3.48s-1.15,1.73-2.02,2.27c-0.87,0.53-1.91,0.8-3.11,0.8S896.55,45.12,895.67,44.58z M901.04,43.3
					c0.63-0.42,1.12-1.01,1.46-1.77s0.51-1.66,0.51-2.69v-0.02c0-1.04-0.17-1.94-0.51-2.7c-0.34-0.76-0.83-1.35-1.46-1.76
					s-1.38-0.62-2.24-0.62s-1.61,0.21-2.25,0.62s-1.13,1-1.47,1.76s-0.52,1.66-0.52,2.7v0.02c0,1.04,0.17,1.94,0.52,2.7
					s0.83,1.35,1.47,1.77s1.38,0.62,2.25,0.62C899.66,43.92,900.41,43.71,901.04,43.3z"/>
				<path d="M906.39,44.08l4.46-4.66c0.57-0.6,1.01-1.09,1.31-1.48s0.51-0.74,0.62-1.05c0.11-0.31,0.17-0.64,0.17-0.99v-0.02
					c0-0.43-0.1-0.82-0.3-1.15c-0.2-0.33-0.48-0.6-0.83-0.79c-0.36-0.19-0.76-0.29-1.23-0.29c-0.53,0-1,0.11-1.42,0.33
					s-0.74,0.51-0.98,0.88s-0.36,0.78-0.36,1.24v0.04h-1.53V36.1c0-0.73,0.19-1.39,0.57-1.96s0.89-1.03,1.54-1.36s1.36-0.5,2.15-0.5
					c0.77,0,1.45,0.16,2.05,0.47s1.07,0.73,1.41,1.27c0.34,0.53,0.51,1.13,0.51,1.79v0.02c0,0.46-0.09,0.91-0.26,1.34
					c-0.17,0.43-0.47,0.92-0.9,1.46s-1.03,1.21-1.81,2.01l-3.48,3.57l0.47-0.98v0.98l-0.47-0.44h6.66v1.41h-8.37V44.08z"/>
				<path d="M820.19,57.63h1.53v1.55h0.04c0.19-0.36,0.43-0.66,0.72-0.92s0.61-0.45,0.98-0.59s0.77-0.21,1.2-0.21
					c0.78,0,1.46,0.19,2.04,0.58c0.58,0.39,1.04,0.94,1.36,1.65s0.48,1.55,0.48,2.51v0.01c0,0.96-0.16,1.8-0.49,2.5
					c-0.33,0.71-0.78,1.26-1.35,1.65c-0.58,0.39-1.25,0.58-2.02,0.58c-0.43,0-0.83-0.07-1.2-0.21s-0.71-0.33-1-0.59
					c-0.29-0.25-0.53-0.56-0.73-0.91h-0.04v4.61h-1.53V57.63z M825.75,65.18c0.39-0.28,0.69-0.67,0.91-1.17s0.32-1.11,0.32-1.8V62.2
					c0-0.7-0.11-1.31-0.32-1.81s-0.51-0.9-0.91-1.17s-0.86-0.41-1.4-0.41c-0.52,0-0.97,0.14-1.37,0.42s-0.71,0.68-0.94,1.18
					s-0.34,1.1-0.34,1.79v0.01c0,0.68,0.11,1.27,0.34,1.78s0.54,0.9,0.94,1.18c0.39,0.28,0.85,0.42,1.37,0.42
					C824.89,65.59,825.36,65.46,825.75,65.18z"/>
				<path d="M831.58,66.37c-0.63-0.39-1.11-0.93-1.45-1.64c-0.34-0.71-0.51-1.54-0.51-2.49v-0.01c0-0.94,0.17-1.77,0.51-2.49
					s0.82-1.28,1.43-1.68s1.34-0.6,2.17-0.6s1.55,0.19,2.15,0.58s1.06,0.92,1.38,1.61s0.48,1.49,0.48,2.41v0.56h-7.37v-1.2H837
					l-0.77,1.11v-0.59c0-0.71-0.11-1.29-0.32-1.76s-0.51-0.81-0.88-1.03s-0.81-0.34-1.29-0.34s-0.92,0.12-1.31,0.36
					s-0.69,0.59-0.91,1.05s-0.33,1.04-0.33,1.72v0.59c0,0.64,0.11,1.2,0.33,1.65c0.22,0.46,0.53,0.81,0.94,1.05s0.88,0.36,1.43,0.36
					c0.39,0,0.73-0.06,1.04-0.18s0.56-0.28,0.76-0.48s0.35-0.44,0.44-0.7l0.03-0.08h1.5l-0.02,0.09c-0.08,0.38-0.22,0.73-0.44,1.05
					s-0.49,0.62-0.82,0.87s-0.71,0.44-1.14,0.58s-0.89,0.21-1.39,0.21C832.96,66.95,832.21,66.75,831.58,66.37z"/>
				<path d="M839.29,57.63h1.53v1.55h0.04c0.15-0.53,0.42-0.95,0.79-1.26s0.82-0.47,1.34-0.47c0.13,0,0.26,0.01,0.36,0.02
					s0.19,0.03,0.25,0.04V59c-0.06-0.02-0.16-0.04-0.31-0.06c-0.15-0.02-0.32-0.03-0.51-0.03c-0.39,0-0.74,0.09-1.03,0.26
					s-0.52,0.43-0.69,0.76s-0.24,0.73-0.24,1.19v5.64h-1.53V57.63z"/>
				<path d="M848.97,69.83c-0.15-0.01-0.27-0.03-0.37-0.05v-1.25c0.06,0.01,0.14,0.02,0.22,0.04c0.08,0.01,0.17,0.02,0.27,0.02
					c0.49,0,0.88-0.08,1.16-0.25c0.29-0.17,0.53-0.51,0.71-1.03l0.18-0.52l-3.39-9.15h1.63l2.64,7.96l-0.33-0.35h0.46l-0.33,0.35
					l2.65-7.96h1.61l-3.57,9.71c-0.22,0.58-0.46,1.05-0.73,1.42s-0.59,0.64-0.98,0.82s-0.85,0.26-1.4,0.26
					C849.26,69.85,849.12,69.84,848.97,69.83z"/>
				<path d="M858.79,66.37c-0.63-0.39-1.11-0.93-1.45-1.64c-0.34-0.71-0.51-1.54-0.51-2.49v-0.01c0-0.94,0.17-1.77,0.51-2.49
					s0.82-1.28,1.43-1.68s1.34-0.6,2.17-0.6s1.55,0.19,2.15,0.58s1.06,0.92,1.38,1.61s0.48,1.49,0.48,2.41v0.56h-7.37v-1.2h6.61
					l-0.77,1.11v-0.59c0-0.71-0.11-1.29-0.32-1.76s-0.51-0.81-0.88-1.03s-0.81-0.34-1.29-0.34s-0.92,0.12-1.31,0.36
					s-0.69,0.59-0.91,1.05s-0.33,1.04-0.33,1.72v0.59c0,0.64,0.11,1.2,0.33,1.65c0.22,0.46,0.53,0.81,0.94,1.05s0.88,0.36,1.43,0.36
					c0.39,0,0.73-0.06,1.04-0.18s0.56-0.28,0.76-0.48s0.35-0.44,0.44-0.7l0.03-0.08h1.5l-0.02,0.09c-0.08,0.38-0.22,0.73-0.44,1.05
					s-0.49,0.62-0.82,0.87s-0.71,0.44-1.14,0.58s-0.89,0.21-1.39,0.21C860.17,66.95,859.42,66.75,858.79,66.37z"/>
				<path d="M867.59,66.6c-0.46-0.23-0.81-0.55-1.07-0.97c-0.25-0.42-0.38-0.9-0.38-1.45v-0.02c0-0.78,0.29-1.4,0.87-1.87
					s1.39-0.73,2.44-0.79l3.38-0.19v1.19l-3.21,0.19c-0.61,0.04-1.08,0.18-1.42,0.44s-0.5,0.6-0.5,1.03v0.02
					c0,0.44,0.17,0.79,0.5,1.05c0.33,0.26,0.77,0.39,1.32,0.39c0.48,0,0.91-0.1,1.3-0.3c0.38-0.2,0.69-0.48,0.91-0.83
					c0.22-0.35,0.34-0.75,0.34-1.19v-2.7c0-0.56-0.17-0.99-0.52-1.31s-0.84-0.48-1.48-0.48c-0.59,0-1.06,0.13-1.42,0.38
					c-0.36,0.25-0.58,0.59-0.67,1l-0.02,0.08h-1.48l0.01-0.1c0.05-0.5,0.22-0.96,0.51-1.37c0.29-0.41,0.7-0.74,1.23-0.98
					s1.14-0.36,1.85-0.36c0.72,0,1.34,0.12,1.87,0.37s0.93,0.59,1.22,1.04s0.43,0.98,0.43,1.59v6.32h-1.53v-1.49h-0.04
					c-0.18,0.33-0.41,0.63-0.7,0.87s-0.62,0.44-0.99,0.58c-0.37,0.14-0.75,0.21-1.17,0.21C868.57,66.95,868.04,66.83,867.59,66.6z"
					/>
				<path d="M875.54,57.63h1.53v1.55h0.04c0.15-0.53,0.42-0.95,0.79-1.26s0.82-0.47,1.34-0.47c0.13,0,0.26,0.01,0.36,0.02
					s0.19,0.03,0.25,0.04V59c-0.06-0.02-0.16-0.04-0.31-0.06c-0.15-0.02-0.32-0.03-0.51-0.03c-0.39,0-0.74,0.09-1.03,0.26
					s-0.52,0.43-0.69,0.76s-0.24,0.73-0.24,1.19v5.64h-1.53V57.63z"/>
			</g>
		</g>
	</g>
	<circle class="st0" cx="801.46" cy="23.57" r="7.41"/>
</g>
</svg>
