<?xml version="1.0" encoding="UTF-8" standalone="no"?>
<!-- Created with Inkscape (http://www.inkscape.org/) -->

<svg
   xmlns:dc="http://purl.org/dc/elements/1.1/"
   xmlns:cc="http://creativecommons.org/ns#"
   xmlns:rdf="http://www.w3.org/1999/02/22-rdf-syntax-ns#"
   xmlns:svg="http://www.w3.org/2000/svg"
   xmlns="http://www.w3.org/2000/svg"
   xmlns:sodipodi="http://sodipodi.sourceforge.net/DTD/sodipodi-0.dtd"
   xmlns:inkscape="http://www.inkscape.org/namespaces/inkscape"
   id="svg2"
   version="1.1"
   inkscape:version="0.48.5 r10040"
   width="223.19925"
   height="60.821499"
   xml:space="preserve"
   sodipodi:docname="PM_MediaKit_2016_12.24.pdf"><metadata
     id="metadata8"><rdf:RDF><cc:Work
         rdf:about=""><dc:format>image/svg+xml</dc:format><dc:type
           rdf:resource="http://purl.org/dc/dcmitype/StillImage" /><dc:title></dc:title></cc:Work></rdf:RDF></metadata><defs
     id="defs6"><clipPath
       clipPathUnits="userSpaceOnUse"
       id="clipPath18"><path
         d="M 0,792 612,792 612,0 0,0 0,792 z"
         id="path20"
         inkscape:connector-curvature="0" /></clipPath><clipPath
       clipPathUnits="userSpaceOnUse"
       id="clipPath244"><path
         d="M 0,0 612,0 612,792 0,792 0,0 z"
         id="path246"
         inkscape:connector-curvature="0" /></clipPath></defs><sodipodi:namedview
     pagecolor="#ffffff"
     bordercolor="#666666"
     borderopacity="1"
     objecttolerance="10"
     gridtolerance="10"
     guidetolerance="10"
     inkscape:pageopacity="0"
     inkscape:pageshadow="2"
     inkscape:window-width="1920"
     inkscape:window-height="1017"
     id="namedview4"
     showgrid="false"
     fit-margin-top="0"
     fit-margin-left="0"
     fit-margin-right="0"
     fit-margin-bottom="0"
     inkscape:zoom="2.6970053"
     inkscape:cx="147.8278"
     inkscape:cy="86.923734"
     inkscape:window-x="-8"
     inkscape:window-y="-8"
     inkscape:window-maximized="1"
     inkscape:current-layer="g252" /><g
     id="g10"
     inkscape:groupmode="layer"
     inkscape:label="PM_MediaKit_2016_12.24"
     transform="matrix(1.25,0,0,-1.25,-67.500375,964.50013)"><g
       id="g240"><g
         id="g242"
         clip-path="url(#clipPath244)"><g
           id="g248"
           transform="translate(136.3219,752.4167)"><path
             d="m 0,0 c 0,-1.461 -0.223,-1.588 -1.565,-2.16 l 0,-1.778 16.878,0 0,7.813 -1.676,0 -0.783,-2.605 c -0.503,-1.715 -1.118,-2.667 -2.85,-2.667 l -1.844,0 c -1.453,0 -2.18,0.508 -2.18,2.223 l 0,13.911 c 0,1.461 0.447,1.524 1.844,2.159 l 0,1.779 -9.389,0 0,-1.779 C -0.223,16.325 0,16.198 0,14.737 L 0,0 z"
             style="fill:#d22027;fill-opacity:1;fill-rule:nonzero;stroke:none"
             id="path250"
             inkscape:connector-curvature="0" /></g><g
           id="g252"
           transform="translate(120.0588,767.1536)"><path
             d="m 0,0 c 0,1.461 0.447,1.524 1.844,2.159 l 0,1.779 -9.389,0 0,-1.779 C -6.204,1.588 -5.98,1.461 -5.98,0 l 0,-10.291 c 0,-5.335 3.018,-8.892 9.222,-8.892 5.253,0 8.494,3.176 8.494,8.067 l 0,11.116 c 0,1.461 0.224,1.588 1.565,2.159 l 0,1.779 -5.756,0 0,-1.779 C 8.886,1.588 9.11,1.461 9.11,0 l 0,-10.545 C 9.11,-13.847 7.545,-15.88 4.471,-15.88 1.788,-15.88 0,-14.165 0,-10.862 L 0,0 z"
             style="fill:#d22027;fill-opacity:1;fill-rule:nonzero;stroke:none"
             id="path254"
             inkscape:connector-curvature="0" /></g><g
           id="g256"
           transform="translate(83.3547,750.5111)"><path
             d="m 0,0 c -2.347,0 -3.465,2.477 -3.465,9.274 0,6.796 1.118,9.274 3.465,9.274 2.347,0 3.465,-2.478 3.465,-9.274 C 3.465,2.477 2.347,0 0,0 m 0,21.089 c -6.092,0 -10.004,-5.526 -10.004,-11.815 0,-6.289 3.912,-11.815 10.004,-11.815 6.092,0 10.004,5.526 10.004,11.815 0,6.289 -3.912,11.815 -10.004,11.815"
             style="fill:#d22027;fill-opacity:1;fill-rule:nonzero;stroke:none"
             id="path258"
             inkscape:connector-curvature="0" /></g><g
           id="g260"
           transform="translate(102.59,759.4038)"><path
             d="m 0,0 -1.23,0 0,9.147 1.23,0 C 1.676,9.147 2.962,8.322 2.962,4.574 2.962,0.826 1.676,0 0,0 m 1.509,11.688 -10.283,0 0,-1.779 C -7.433,9.338 -7.21,9.211 -7.21,7.75 l 0,-14.737 c 0,-1.461 -0.223,-1.588 -1.564,-2.16 l 0,-1.779 9.389,0 0,1.779 c -1.397,0.635 -1.845,0.699 -1.845,2.16 l 0,4.446 2.739,0 c 5.365,0 7.992,3.367 7.992,7.115 0,3.748 -2.627,7.114 -7.992,7.114"
             style="fill:#d22027;fill-opacity:1;fill-rule:nonzero;stroke:none"
             id="path262"
             inkscape:connector-curvature="0" /></g><g
           id="g264"
           transform="translate(183.0999,759.8487)"><path
             d="m 0,0 -0.895,0 0,8.702 0.895,0 C 2.18,8.702 3.8,7.749 3.8,4.446 3.8,1.143 2.18,0 0,0 M 9.612,-6.606 6.315,-0.89 c 2.403,0.953 4.024,2.986 4.024,5.654 0,3.494 -2.682,6.479 -7.657,6.479 l -11.121,0 0,-1.778 c 1.341,-0.572 1.564,-0.699 1.564,-2.16 l 0,-14.737 c 0,-1.461 -0.223,-1.588 -1.564,-2.16 l 0,-1.779 9.389,0 0,1.779 c -1.397,0.635 -1.845,0.699 -1.845,2.16 l 0,4.891 1.23,0 4.639,-8.83 7.601,0 0,1.779 c -1.286,0.318 -1.957,1.271 -2.963,2.986"
             style="fill:#d22027;fill-opacity:1;fill-rule:nonzero;stroke:none"
             id="path266"
             inkscape:connector-curvature="0" /></g><g
           id="g268"
           transform="translate(62.7743,759.4038)"><path
             d="m 0,0 -1.23,0 0,9.147 1.23,0 C 1.677,9.147 2.962,8.322 2.962,4.574 2.962,0.826 1.677,0 0,0 m 1.509,11.688 -10.283,0 0,-1.779 C -7.433,9.338 -7.209,9.211 -7.209,7.75 l 0,-14.737 c 0,-1.461 -0.224,-1.588 -1.565,-2.16 l 0,-1.779 9.389,0 0,1.779 c -1.397,0.635 -1.845,0.699 -1.845,2.16 l 0,4.446 2.739,0 c 5.365,0 7.992,3.367 7.992,7.115 0,3.748 -2.627,7.114 -7.992,7.114"
             style="fill:#d22027;fill-opacity:1;fill-rule:nonzero;stroke:none"
             id="path270"
             inkscape:connector-curvature="0" /></g><g
           id="g272"
           transform="translate(158.7328,757.6888)"><path
             d="M 0,0 2.403,8.004 4.639,0 0,0 z m 13.022,-5.971 -6.036,19.374 -8.271,0 0,-1.906 c 1.676,0 2.068,-0.762 1.453,-2.794 L -4.415,-5.971 c -0.279,-0.826 -0.559,-1.27 -1.565,-1.461 l 0,-1.778 6.092,0 0,1.778 c -1.677,0 -1.956,0.762 -1.621,2.033 l 0.782,2.858 6.092,0 0.839,-2.858 C 6.595,-6.67 6.259,-7.114 4.918,-7.432 l 0,-1.778 9.613,0 0,1.778 c -0.95,0.318 -1.23,0.635 -1.509,1.461"
             style="fill:#d22027;fill-opacity:1;fill-rule:nonzero;stroke:none"
             id="path274"
             inkscape:connector-curvature="0" /></g><g
           id="g276"
           transform="translate(186.5647,746.0646)"><path
             d="m 0,0 0,-1.779 c 1.341,-0.572 1.565,-0.699 1.565,-2.159 l 0,-14.737 c 0,-1.461 -0.224,-1.588 -1.565,-2.16 l 0,-1.778 9.11,0 0,1.778 c -1.341,0.572 -1.565,0.699 -1.565,2.16 l 0,14.737 c 0,1.46 0.224,1.587 1.565,2.159 L 9.11,0 0,0 z"
             style="fill:#d22027;fill-opacity:1;fill-rule:nonzero;stroke:none"
             id="path278"
             inkscape:connector-curvature="0" /></g><g
           id="g280"
           transform="translate(99.2128,734.8849)"><path
             d="m 0,0 c 0,-6.987 3.856,-11.942 10.674,-11.942 2.18,0 4.975,0.508 7.266,1.27 l 0,7.178 -1.677,0 c -1.006,-4.256 -2.068,-5.907 -4.806,-5.907 -2.627,0 -4.918,2.414 -4.918,9.274 0,6.86 2.459,9.274 4.974,9.274 2.291,0 3.576,-0.953 4.694,-5.145 l 1.677,0 0,6.987 c -2.291,0 -4.527,0.699 -7.265,0.699 C 5.03,11.688 0,7.877 0,0"
             style="fill:#d22027;fill-opacity:1;fill-rule:nonzero;stroke:none"
             id="path282"
             inkscape:connector-curvature="0" /></g><g
           id="g284"
           transform="translate(196.2892,734.8849)"><path
             d="m 0,0 c 0,-6.987 3.856,-11.942 10.674,-11.942 2.18,0 4.974,0.508 7.266,1.27 l 0,7.178 -1.677,0 c -1.006,-4.256 -2.068,-5.907 -4.806,-5.907 -2.627,0 -4.918,2.414 -4.918,9.274 0,6.86 2.459,9.274 4.973,9.274 2.292,0 3.577,-0.953 4.695,-5.145 l 1.677,0 0,6.987 c -2.292,0 -4.527,0.699 -7.265,0.699 C 5.03,11.688 0,7.877 0,0"
             style="fill:#d22027;fill-opacity:1;fill-rule:nonzero;stroke:none"
             id="path286"
             inkscape:connector-curvature="0" /></g><g
           id="g288"
           transform="translate(98.0719,731.2642)"><path
             d="m 0,0 -1.677,0 -0.782,-2.604 c -0.503,-1.716 -1.118,-2.668 -2.85,-2.668 l -2.403,0 c -1.454,0 -2.18,0.508 -2.18,2.223 l 0,5.59 4.303,0 0,2.541 -4.303,0 0,7.177 4.303,0 c 1.733,0 2.18,-1.016 2.85,-2.667 l 0.783,-1.97 1.677,0 0,7.178 -17.158,0 0,-1.779 c 1.342,-0.571 1.565,-0.698 1.565,-2.159 l 0,-14.737 c 0,-1.461 -0.223,-1.588 -1.565,-2.159 l 0,-1.779 L 0,-7.813 0,0 z"
             style="fill:#d22027;fill-opacity:1;fill-rule:nonzero;stroke:none"
             id="path290"
             inkscape:connector-curvature="0" /></g><g
           id="g292"
           transform="translate(59.7565,725.2297)"><path
             d="m 0,0 c -1.341,0.572 -1.565,0.698 -1.565,2.16 l 0,14.419 5.477,-18.358 2.682,0 5.254,18.358 0,-14.419 C 11.848,0.698 11.625,0.572 10.283,0 l 0,-1.779 9.11,0 0,1.779 c -1.341,0.572 -1.565,0.698 -1.565,2.16 l 0,14.736 c 0,1.461 0.224,1.588 1.565,2.16 l 0,1.779 -8.886,0 -3.353,-12.006 -3.466,12.006 -9.444,0 0,-1.779 c 1.341,-0.572 1.565,-0.699 1.565,-2.16 l 0,-14.736 C -4.191,0.698 -4.415,0.572 -5.756,0 l 0,-1.779 5.756,0 L 0,0 z"
             style="fill:#d22027;fill-opacity:1;fill-rule:nonzero;stroke:none"
             id="path294"
             inkscape:connector-curvature="0" /></g><g
           id="g296"
           transform="translate(170.3573,725.2297)"><path
             d="m 0,0 c -1.397,0.635 -1.844,0.698 -1.844,2.16 l 0,13.022 9.389,-16.961 5.7,0 0,18.675 c 0,1.461 0.224,1.588 1.565,2.16 l 0,1.779 -5.756,0 0,-1.779 c 1.341,-0.572 1.565,-0.699 1.565,-2.16 l 0,-10.925 -8.16,14.864 -8.495,0 0,-1.779 c 1.342,-0.572 1.565,-0.699 1.565,-2.16 l 0,-14.736 C -4.471,0.698 -4.694,0.572 -6.036,0 l 0,-1.779 6.036,0 L 0,0 z"
             style="fill:#d22027;fill-opacity:1;fill-rule:nonzero;stroke:none"
             id="path298"
             inkscape:connector-curvature="0" /></g><g
           id="g300"
           transform="translate(119.1087,723.4512)"><path
             d="m 0,0 9.11,0 0,1.779 C 7.768,2.35 7.545,2.477 7.545,3.938 l 0,6.416 6.818,0 0,-6.416 c 0,-1.461 -0.223,-1.588 -1.565,-2.159 l 0,-1.779 9.11,0 0,1.779 C 20.567,2.35 20.343,2.477 20.343,3.938 l 0,14.737 c 0,1.461 0.224,1.588 1.565,2.16 l 0,1.778 -9.11,0 0,-1.778 c 1.342,-0.572 1.565,-0.699 1.565,-2.16 l 0,-5.78 -6.818,0 0,5.78 c 0,1.461 0.223,1.588 1.565,2.16 l 0,1.778 -9.11,0 0,-1.778 c 1.341,-0.572 1.565,-0.699 1.565,-2.16 l 0,-14.737 C 1.565,2.477 1.341,2.35 0,1.779 L 0,0 z"
             style="fill:#d22027;fill-opacity:1;fill-rule:nonzero;stroke:none"
             id="path302"
             inkscape:connector-curvature="0" /></g><g
           id="g304"
           transform="translate(217.8617,731.391)"><path
             d="m 0,0 -1.677,0 0,-7.178 c 1.453,0 3.968,-1.27 7.601,-1.27 5.253,0 8.774,3.303 8.774,7.75 0,2.159 -0.726,3.684 -1.788,4.764 C 11.624,5.399 9.892,5.971 7.545,6.733 6.371,7.115 5.589,7.369 5.03,7.813 4.471,8.258 4.08,8.893 4.08,9.909 c 0,1.525 1.173,2.732 3.074,2.732 2.626,0 4.247,-2.096 4.638,-4.637 l 1.733,0 0,6.479 c -1.789,0 -3.968,0.699 -7.042,0.699 -5.03,0 -8.272,-2.986 -8.272,-7.496 0,-1.905 0.615,-3.43 1.51,-4.573 C 0.726,1.906 2.124,1.271 3.577,0.762 4.918,0.318 5.868,0 6.874,-0.444 7.936,-0.889 8.719,-1.778 8.719,-3.049 8.719,-4.573 7.545,-5.908 5.421,-5.908 2.627,-5.908 0.447,-3.811 0,0"
             style="fill:#d22027;fill-opacity:1;fill-rule:nonzero;stroke:none"
             id="path306"
             inkscape:connector-curvature="0" /></g><g
           id="g308"
           transform="translate(148.3937,732.6615)"><path
             d="M 0,0 2.403,8.004 4.639,0 0,0 z m 13.022,-5.971 -6.036,19.374 -8.271,0 0,-1.906 c 1.676,0 2.067,-0.762 1.453,-2.794 L -4.415,-5.971 c -0.28,-0.826 -0.559,-1.27 -1.565,-1.461 l 0,-1.778 6.092,0 0,1.778 c -1.677,0 -1.956,0.762 -1.621,2.033 l 0.782,2.858 6.092,0 0.838,-2.858 C 6.595,-6.67 6.259,-7.114 4.918,-7.432 l 0,-1.778 9.613,0 0,1.778 c -0.95,0.318 -1.23,0.635 -1.509,1.461"
             style="fill:#d22027;fill-opacity:1;fill-rule:nonzero;stroke:none"
             id="path310"
             inkscape:connector-curvature="0" /></g></g></g></g></svg>